<?xml version="1.0" encoding="UTF-8"?>
<svg version="1.1" xmlns="http://www.w3.org/2000/svg" width="2000" height="1999">
<path d="M0 0 C1.12738712 0.00040031 1.12738712 0.00040031 2.27754974 0.00080872 C25.55067878 0.01116989 48.73280081 0.24711907 71.9375 2.1875 C72.74054565 2.25302063 73.54359131 2.31854126 74.37097168 2.38604736 C150.19608194 8.58635064 224.49321332 22.88787681 296.9375 46.1875 C298.22236208 46.59611657 299.50735773 47.00431335 300.79248047 47.41210938 C344.99824424 61.4698902 387.52941478 79.72712876 429.07885742 100.27087402 C431.89720413 101.66079688 434.72250641 103.03642706 437.546875 104.4140625 C451.31203437 111.16431656 464.6924941 118.46972065 477.9375 126.1875 C479.01966797 126.8170459 480.10183594 127.4465918 481.21679688 128.09521484 C503.32949145 140.99428668 524.93938564 154.53797327 545.9375 169.1875 C546.65212402 169.68459473 547.36674805 170.18168945 548.10302734 170.69384766 C564.40102305 182.04670902 580.44993206 193.74772082 595.9375 206.1875 C596.57252441 206.69635742 597.20754883 207.20521484 597.86181641 207.72949219 C605.68852392 214.01147992 613.41783985 220.38998628 621.0065918 226.95776367 C624.36531041 229.8605433 627.77465304 232.67397109 631.25 235.4375 C637.61805438 240.60332583 643.50096591 246.27522941 649.43359375 251.9296875 C652.69553031 255.03725636 656.01636962 258.06978964 659.359375 261.08984375 C666.94764494 267.99334036 674.16935964 275.26917321 681.41186523 282.53149414 C683.75977056 284.884793 686.11301968 287.2326539 688.46679688 289.58007812 C689.98469597 291.09863758 691.50228506 292.61750696 693.01953125 294.13671875 C693.71133987 294.82650314 694.4031485 295.51628754 695.11592102 296.22697449 C699.02456221 300.154242 702.76022485 304.17969004 706.37104797 308.38293457 C708.93322422 311.33458237 711.6308173 314.1573835 714.3125 317 C719.03946376 322.04660944 723.51259143 327.22084148 727.8359375 332.62109375 C729.91751427 335.16309363 732.0878838 337.58279335 734.3125 340 C738.29433587 344.37450826 741.95492083 348.93279075 745.57641602 353.60400391 C748.53795484 357.42064568 751.55709829 361.17961717 754.62988281 364.90722656 C761.82293903 373.64381985 768.57763109 382.65912615 775.21875 391.8203125 C776.87750511 394.10487067 778.54675446 396.38137145 780.21875 398.65625 C833.71885045 471.71178296 876.32908909 553.78477214 906.9375 641.1875 C907.17341858 641.85896057 907.40933716 642.53042114 907.65240479 643.222229 C935.65762709 723.02175343 952.20011903 806.14831868 915.60168457 1252.12524414 C914.94375695 1254.16807253 914.29426153 1256.21338949 913.64746094 1258.25976562 C888.41892558 1337.95815433 851.19389821 1415.59878289 801.21972656 1490.31347656 C799.77140287 1492.43025735 798.33494532 1494.55487164 796.8984375 1496.6796875 C781.06144357 1520.04319726 764.287285 1542.71576912 746.32910156 1564.49609375 C744.33131881 1566.92427601 742.35568576 1569.37036415 740.375 1571.8125 C732.63014339 1581.2595229 724.66364035 1590.50746633 716.38671875 1599.4921875 C714.46670819 1601.60511778 712.58372738 1603.73784255 710.71240234 1605.89331055 C699.9006761 1618.25924932 688.34614935 1629.942696 676.71899414 1641.53637695 C674.4735842 1643.77635186 672.23367161 1646.02172696 669.99414062 1648.26757812 C668.53938354 1649.72167542 667.08431682 1651.17546303 665.62890625 1652.62890625 C664.97354385 1653.28629288 664.31818146 1653.9436795 663.64295959 1654.62098694 C659.80508808 1658.43970718 655.86022768 1662.07857018 651.75469971 1665.6084137 C648.79989539 1668.1760407 645.97195973 1670.87671996 643.125 1673.5625 C638.07839056 1678.28946376 632.90415852 1682.76259143 627.50390625 1687.0859375 C624.96190637 1689.16751427 622.54220665 1691.3378838 620.125 1693.5625 C615.16032442 1698.08082462 609.93662603 1702.19311936 604.63671875 1706.3046875 C601.53713821 1708.70991609 598.47574397 1711.15884597 595.42333984 1713.62353516 C587.73850121 1719.82423807 579.91926779 1725.82159343 571.97363281 1731.68408203 C570.65037947 1732.66113168 569.32928674 1733.64111673 568.01074219 1734.62451172 C538.72973591 1756.44042127 507.64265904 1776.11794319 475.9375 1794.1875 C474.86338867 1794.80077148 473.78927734 1795.41404297 472.68261719 1796.04589844 C430.0624874 1820.26216658 385.76520525 1840.83906129 339.9375 1858.1875 C339.25558594 1858.44595703 338.57367187 1858.70441406 337.87109375 1858.97070312 C261.75045808 1887.76728322 181.9127299 1906.19982525 71.9375 1917.1875 C71.18088074 1917.24915344 70.42426147 1917.31080688 69.64471436 1917.37432861 C23.5394819 1921.08265114 -23.96557776 1920.87610259 -70.0625 1917.1875 C-71.2420224 1917.09628876 -71.2420224 1917.09628876 -72.44537354 1917.00323486 C-116.04512372 1913.63059753 -159.30715464 1907.35872675 -202.0625 1898.1875 C-202.88451904 1898.01154297 -203.70653809 1897.83558594 -204.5534668 1897.65429688 C-227.97704865 1892.62041194 -251.06699283 1886.70405992 -274.0088501 1879.8034668 C-276.01409782 1879.20201763 -278.02111307 1878.60689287 -280.02880859 1878.01367188 C-346.27883703 1858.39326975 -411.5736512 1830.69524417 -471.25488281 1795.81787109 C-474.30036463 1794.04937305 -477.36327218 1792.31396249 -480.4296875 1790.58203125 C-494.04784937 1782.86262385 -507.28703824 1774.72168718 -520.30419922 1766.02832031 C-523.05217248 1764.19439233 -525.80820332 1762.37318567 -528.56640625 1760.5546875 C-554.07411619 1743.70076233 -578.82597405 1725.79584499 -602.4296875 1706.35546875 C-604.17979526 1704.91435627 -605.93499612 1703.47940597 -607.6953125 1702.05078125 C-618.17708247 1693.54007298 -628.43640504 1684.78517269 -638.3671875 1675.63671875 C-640.48011778 1673.71670819 -642.61284255 1671.83372738 -644.76831055 1669.96240234 C-657.13424932 1659.1506761 -668.817696 1647.59614935 -680.41137695 1635.96899414 C-682.65135186 1633.7235842 -684.89672696 1631.48367161 -687.14257812 1629.24414062 C-688.59667542 1627.78938354 -690.05046303 1626.33431682 -691.50390625 1624.87890625 C-692.48998619 1623.89586266 -692.48998619 1623.89586266 -693.49598694 1622.89295959 C-697.31470718 1619.05508808 -700.95357018 1615.11022768 -704.4834137 1611.00469971 C-707.0510407 1608.04989539 -709.75171996 1605.22195973 -712.4375 1602.375 C-717.16446376 1597.32839056 -721.63759143 1592.15415852 -725.9609375 1586.75390625 C-728.04251427 1584.21190637 -730.2128838 1581.79220665 -732.4375 1579.375 C-736.41933587 1575.00049174 -740.07992083 1570.44220925 -743.70141602 1565.77099609 C-746.66295484 1561.95435432 -749.68209829 1558.19538283 -752.75488281 1554.46777344 C-759.94452996 1545.73532076 -766.69677148 1536.72456961 -773.33496094 1527.56787109 C-775.02109753 1525.24454834 -776.71654865 1522.92829941 -778.4140625 1520.61328125 C-785.92996852 1510.32994234 -793.0906698 1499.84610436 -800.0625 1489.1875 C-800.51834473 1488.49333984 -800.97418945 1487.79917969 -801.44384766 1487.08398438 C-848.39660632 1415.51439614 -885.87519583 1338.18754705 -959.0625 974.1875 C-959.08183594 973.45756836 -959.10117187 972.72763672 -959.12109375 971.97558594 C-959.34810926 963.0390331 -959.29920309 954.1230418 -959.0625 945.1875 C-959.04058594 944.3428418 -959.01867187 943.49818359 -958.99609375 942.62792969 C-957.09588237 871.54502239 -948.85580632 801.34454994 -932.0625 732.1875 C-931.61487305 730.33535889 -931.61487305 730.33535889 -931.15820312 728.44580078 C-926.13130181 707.84666446 -920.16778584 687.57699754 -913.75524902 667.37115479 C-913.08604009 665.26170211 -912.42035342 663.15116173 -911.75488281 661.04052734 C-891.61161129 597.38792375 -863.72256491 535.28803509 -829.65527344 477.88085938 C-828.23859102 475.48526764 -826.83722381 473.08191348 -825.4453125 470.671875 C-811.5849454 446.71925274 -796.15645403 423.68763774 -780.0625 401.1875 C-779.52979492 400.43936035 -778.99708984 399.6912207 -778.44824219 398.92041016 C-767.68847796 383.81646305 -756.26820001 369.35417588 -744.5390625 354.99609375 C-743.23202459 353.3951452 -741.92826644 351.79152024 -740.625 350.1875 C-732.50648412 340.21332335 -724.26615498 330.37387755 -715.546875 320.91796875 C-713.61286464 318.7923819 -711.71681845 316.64717164 -709.83325195 314.47753906 C-698.8902023 301.96079834 -687.18477342 290.14659067 -675.41674805 278.41137695 C-673.09891162 276.09897277 -670.78656696 273.78117102 -668.47460938 271.46289062 C-666.97427936 269.96322043 -665.4736397 268.46385994 -663.97265625 266.96484375 C-662.95680199 265.94595314 -662.95680199 265.94595314 -661.92042542 264.90647888 C-658.02906953 261.03394462 -654.03601506 257.33719089 -649.87200928 253.75889587 C-646.91912794 251.19458432 -644.09431622 248.49578618 -641.25 245.8125 C-636.20339056 241.08553624 -631.02915852 236.61240857 -625.62890625 232.2890625 C-623.08690637 230.20748573 -620.66720665 228.0371162 -618.25 225.8125 C-613.28047891 221.28976551 -608.05142712 217.17385969 -602.74609375 213.05859375 C-599.71821057 210.7090844 -596.72999018 208.31487162 -593.7512207 205.90356445 C-523.89715456 149.43921297 -443.95959638 103.46290242 -340.08874512 61.95709229 C-338.08722992 61.19689272 -336.08707328 60.43319239 -334.08691406 59.66943359 C-253.0060851 28.81014395 -166.89983322 10.14325365 -55.0625 1.1875 C-54.27702789 1.14017731 -53.49155579 1.09285461 -52.68228149 1.0440979 C-35.13077554 0.01370535 -17.57484951 -0.01400134 0 0 Z " fill="#1B6C28" transform="translate(999.0625,39.8125)"/>
<path d="M0 0 C0.72488239 0.00026688 1.44976479 0.00053375 2.19661331 0.00080872 C25.84616873 0.01171202 49.41292406 0.32215511 73 2.1875 C73.83631958 2.25302063 74.67263916 2.31854126 75.53430176 2.38604736 C127.98332898 6.53675109 179.73803796 14.31285829 231 26.1875 C231.73118042 26.35638733 232.46236084 26.52527466 233.21569824 26.69927979 C295.0490043 41.03035629 355.20738442 62.02774285 413 88.1875 C413.61945496 88.46682373 414.23890991 88.74614746 414.87713623 89.03393555 C444.28796554 102.29751046 473.18031554 116.83274959 501 133.1875 C502.00144043 133.77595703 503.00288086 134.36441406 504.03466797 134.97070312 C526.5569888 148.25569435 548.51898399 162.27866187 570 177.1875 C570.76151367 177.71585449 571.52302734 178.24420898 572.30761719 178.78857422 C588.56329263 190.09923977 604.562146 201.7801027 620 214.1875 C620.6403418 214.7016748 621.28068359 215.21584961 621.94042969 215.74560547 C630.51909554 222.64709861 639.00664201 229.64790815 647.37597656 236.80175781 C649.06714221 238.24479092 650.76374619 239.68124817 652.4609375 241.1171875 C658.94559384 246.61964603 665.29770349 252.23275209 671.51855469 258.03222656 C674.38395334 260.70318113 677.27672997 263.32480396 680.25 265.875 C683.86617434 268.99736902 687.20551021 272.35317976 690.53125 275.78125 C692.5144919 277.71428324 694.52196373 279.51521726 696.62109375 281.31640625 C701.83937335 285.84637397 706.68873253 290.73035987 711.5625 295.625 C712.46935547 296.52798828 713.37621094 297.43097656 714.31054688 298.36132812 C718.89550759 302.95293853 723.33282728 307.60310698 727.55834961 312.52758789 C729.28256901 314.51284915 731.10877606 316.36149068 733 318.1875 C736.17089998 321.31595964 739.1256996 324.55605352 742.02734375 327.93359375 C743.96458906 330.14704037 745.95084932 332.30936491 747.95166016 334.46533203 C752.70810378 339.59380624 757.24107436 344.83360754 761.62890625 350.28515625 C764.31831577 353.57713528 767.09181954 356.78744494 769.875 360 C775.28625049 366.27284932 780.43991422 372.71375651 785.5078125 379.265625 C787.11074785 381.33013859 788.72632058 383.38432476 790.34375 385.4375 C797.95511867 395.1215127 805.30516414 404.96002897 812.44287109 414.99804688 C813.95332862 417.12187614 815.47040237 419.24084619 816.98828125 421.359375 C868.86906828 494.03194949 910.28564352 573.85085618 1001 1010.1875 C1000.98211426 1011.3955127 1000.96422852 1012.60352539 1000.94580078 1013.84814453 C999.51907011 1104.00521907 986.40704321 1193.7142696 897 1444.1875 C896.5059668 1445.20424805 896.01193359 1446.22099609 895.50292969 1447.26855469 C888.69481003 1461.23980485 881.40071629 1474.84425157 873.64550781 1488.31103516 C871.98065685 1491.2213132 870.34204608 1494.14491056 868.7109375 1497.07421875 C862.36091163 1508.46546485 855.75495817 1519.61424036 848.68212891 1530.57080078 C846.78856068 1533.51641242 844.91512132 1536.47432694 843.04296875 1539.43359375 C836.35368652 1549.98683218 829.62223579 1560.43436259 822.22167969 1570.50341797 C820.88770332 1572.34230065 819.5860435 1574.20125448 818.2890625 1576.06640625 C797.25121421 1606.30585548 774.13208631 1635.58721303 749.2265625 1662.74609375 C747.30866793 1664.84904833 745.42623955 1666.97419156 743.5625 1669.125 C737.18579611 1676.45142574 730.65098988 1683.65033228 723.70922852 1690.44580078 C722.02752308 1692.15945406 720.47339526 1693.93325887 718.91796875 1695.76171875 C714.5213449 1700.81407096 709.80721988 1705.5266367 705.0625 1710.25 C704.20720703 1711.10916016 703.35191406 1711.96832031 702.47070312 1712.85351562 C698.0033774 1717.31402621 693.46599546 1721.61464414 688.67749023 1725.72827148 C686.68735167 1727.45946901 684.83177222 1729.29030734 683 1731.1875 C679.87154036 1734.35839998 676.63144648 1737.3131996 673.25390625 1740.21484375 C671.04045963 1742.15208906 668.87813509 1744.13834932 666.72216797 1746.13916016 C661.59369376 1750.89560378 656.35389246 1755.42857436 650.90234375 1759.81640625 C647.61036968 1762.50581171 644.39995032 1765.27920396 641.1875 1768.0625 C634.85520971 1773.52853991 628.34017013 1778.72010366 621.72802734 1783.84179688 C620.0352856 1785.1600213 618.35381445 1786.49124402 616.67578125 1787.828125 C606.97684707 1795.54476423 597.03074189 1802.90887502 587 1810.1875 C586.34821777 1810.66203613 585.69643555 1811.13657227 585.02490234 1811.62548828 C547.8377775 1838.60399931 508.55114964 1862.63370407 468 1884.1875 C466.37118896 1885.0532666 466.37118896 1885.0532666 464.70947266 1885.93652344 C398.89904111 1920.7626373 328.99744277 1947.73839204 73 1997.1875 C72.22039917 1997.24915344 71.44079834 1997.31080688 70.63757324 1997.37432861 C23.85875413 2001.01843558 -24.23036265 2000.85226683 -71 1997.1875 C-71.82218018 1997.12433594 -72.64436035 1997.06117187 -73.49145508 1996.99609375 C-130.03877267 1992.6244584 -185.94386068 1983.82320955 -241 1970.1875 C-241.78679138 1969.99327454 -242.57358276 1969.79904907 -243.38421631 1969.59893799 C-301.69032265 1955.17039455 -358.40085718 1935.20715078 -413 1910.1875 C-414.16740723 1909.65721191 -415.33481445 1909.12692383 -416.53759766 1908.58056641 C-444.18674921 1896.00467396 -471.19606401 1882.37307807 -497.28271484 1866.79003906 C-500.8110069 1864.70920267 -504.38254541 1862.71080973 -507.95727539 1860.71118164 C-519.30453059 1854.34689316 -530.19119665 1847.37851963 -541.01904297 1840.17138672 C-544.07183801 1838.13969036 -547.13117405 1836.11812956 -550.19140625 1834.09765625 C-576.46967374 1816.70981647 -602.03703564 1798.39415067 -626.3671875 1778.35546875 C-628.11729526 1776.91435627 -629.87249612 1775.47940597 -631.6328125 1774.05078125 C-641.91649203 1765.70091318 -651.97153262 1757.09340628 -661.78125 1748.19140625 C-663.79308393 1746.37438018 -665.82660434 1744.58805608 -667.875 1742.8125 C-675.21782423 1736.40800828 -682.44316734 1729.85843042 -689.26025391 1722.89477539 C-690.96308179 1721.22372917 -692.72511533 1719.68111319 -694.54296875 1718.13671875 C-699.78355839 1713.57628819 -704.66267906 1708.67080518 -709.5625 1703.75 C-710.46935547 1702.84701172 -711.37621094 1701.94402344 -712.31054688 1701.01367188 C-716.89550759 1696.42206147 -721.33282728 1691.77189302 -725.55834961 1686.84741211 C-727.28256901 1684.86215085 -729.10877606 1683.01350932 -731 1681.1875 C-734.17089998 1678.05904036 -737.1256996 1674.81894648 -740.02734375 1671.44140625 C-741.96458906 1669.22795963 -743.95084932 1667.06563509 -745.95166016 1664.90966797 C-750.70810378 1659.78119376 -755.24107436 1654.54139246 -759.62890625 1649.08984375 C-762.31831577 1645.79786472 -765.09181954 1642.58755506 -767.875 1639.375 C-773.28625049 1633.10215068 -778.43991422 1626.66124349 -783.5078125 1620.109375 C-785.11074785 1618.04486141 -786.72632058 1615.99067524 -788.34375 1613.9375 C-795.95511867 1604.2534873 -803.30516414 1594.41497103 -810.44287109 1584.37695312 C-811.95332862 1582.25312386 -813.47040237 1580.13415381 -814.98828125 1578.015625 C-865.10942843 1507.80788509 -905.95808856 1430.69880029 -941 1336.1875 C-941.455889 1334.92615077 -941.91211464 1333.66492317 -942.36865234 1332.40380859 C-972.93650925 1247.72784003 -990.59460132 1158.21641457 -999 987.1875 C-998.97317139 985.38249023 -998.97317139 985.38249023 -998.94580078 983.54101562 C-997.38301208 893.15022973 -983.99000588 803.30409308 -895 555.1875 C-894.5059668 554.17075195 -894.01193359 553.15400391 -893.50292969 552.10644531 C-886.69481003 538.13519515 -879.40071629 524.53074843 -871.64550781 511.06396484 C-869.98065685 508.1536868 -868.34204608 505.23008944 -866.7109375 502.30078125 C-860.32749221 490.8501434 -853.67576782 479.65189504 -846.56982422 468.63574219 C-844.90600683 466.04091159 -843.26552978 463.43237299 -841.62890625 460.8203125 C-833.78846538 448.33388808 -825.57556494 436.1794474 -817 424.1875 C-816.46552246 423.43549316 -815.93104492 422.68348633 -815.38037109 421.90869141 C-802.95409105 404.42933777 -789.96883859 387.39345346 -776.34423828 370.83154297 C-774.51603339 368.59559459 -772.72689878 366.3295617 -770.9375 364.0625 C-763.62506116 354.89881082 -755.87754578 346.08171115 -748 337.40234375 C-746.20396471 335.41337498 -744.44046697 333.40186806 -742.6875 331.375 C-738.14604894 326.16995792 -733.4452173 321.11197179 -728.73925781 316.05615234 C-727.55774363 314.78673775 -726.37744713 313.51618892 -725.19824219 312.24462891 C-717.27435996 303.70786119 -709.22301313 295.31205195 -701 287.0625 C-700.22325928 286.28116699 -699.44651855 285.49983398 -698.64624023 284.69482422 C-694.46491498 280.52473546 -690.18945232 276.53734025 -685.71484375 272.68408203 C-683.71427359 270.93814025 -681.84401381 269.09737144 -680 267.1875 C-676.8501997 263.99488688 -673.58780511 261.01588721 -670.1875 258.09375 C-667.64488601 255.87804352 -665.16889802 253.59651408 -662.6875 251.3125 C-658.24749216 247.26228708 -653.68065719 243.43215878 -649.00390625 239.66015625 C-645.50332938 236.7786671 -642.09734225 233.80014638 -638.6875 230.8125 C-632.18383037 225.13395973 -625.50586602 219.73467495 -618.66455078 214.46972656 C-617.07264252 213.24345754 -615.48732658 212.0086448 -613.90234375 210.7734375 C-605.17425199 203.99840799 -596.28640379 197.44442237 -587.3671875 190.92382812 C-585.20633524 189.33884656 -583.05512175 187.74178628 -580.90625 186.140625 C-544.77589695 159.41078198 -505.67538376 136.18679057 -466 115.1875 C-464.87996582 114.59324219 -463.75993164 113.99898438 -462.60595703 113.38671875 C-393.54938507 76.86410588 -320.22872811 49.40770016 -225 25.1875 C-224.30312073 25.02677002 -223.60624146 24.86604004 -222.88824463 24.70043945 C-167.72546364 12.04529259 -111.48534493 4.44339735 -55 1.1875 C-54.16299561 1.1391098 -53.32599121 1.0907196 -52.46362305 1.04086304 C-34.98281038 0.07009112 -17.50198443 -0.01448376 0 0 Z M-12.51953125 25.24169922 C-99.48826119 26.72658406 -186.41111163 38.87520468 -295 71.1875 C-295.76850281 71.42877625 -296.53700562 71.67005249 -297.32879639 71.91864014 C-382.64870849 98.7705342 -464.81967283 138.6150134 -553 198.1875 C-553.73057617 198.69522949 -554.46115234 199.20295898 -555.21386719 199.72607422 C-565.64971665 206.98731682 -575.88140289 214.49124997 -586 222.1875 C-586.56138672 222.61240723 -587.12277344 223.03731445 -587.70117188 223.47509766 C-596.35215868 230.02564979 -604.78454707 236.82590657 -613.1796875 243.69921875 C-614.77261865 245.00159379 -616.3702952 246.29816032 -617.96875 247.59375 C-628.33906282 256.01200393 -638.4805601 264.68808028 -648.3046875 273.73828125 C-650.47820259 275.71334497 -652.67223216 277.6535681 -654.88671875 279.58203125 C-668.18697467 291.19723607 -680.63453775 303.71763082 -693.125 316.1875 C-693.85500214 316.91491394 -694.58500427 317.64232788 -695.33712769 318.39178467 C-697.45950366 320.5082328 -699.5780332 322.62845437 -701.6953125 324.75 C-702.32712936 325.37983795 -702.95894623 326.0096759 -703.60990906 326.65859985 C-707.36346798 330.43140748 -710.93332464 334.31718622 -714.40512085 338.35107422 C-717.02574921 341.36860033 -719.76668344 344.2723746 -722.5 347.1875 C-727.09147707 352.11251258 -731.63296927 357.06098567 -736 362.1875 C-736.84046875 363.17234375 -737.6809375 364.1571875 -738.546875 365.171875 C-744.44948552 372.10839873 -750.26963306 379.10769342 -756 386.1875 C-756.4336084 386.72004395 -756.8672168 387.25258789 -757.31396484 387.80126953 C-780.0771645 415.77986565 -801.98161266 445.26517319 -820.72216797 476.09863281 C-822.13391065 478.40640323 -823.56723852 480.69985404 -825.00390625 482.9921875 C-837.56685203 503.06802363 -849.385958 523.5203835 -860.52441406 544.41992188 C-861.89282973 546.98649368 -863.26979249 549.54828881 -864.6484375 552.109375 C-882.583993 585.5946758 -897.58545656 620.6728257 -911 656.1875 C-911.26834656 656.89672607 -911.53669312 657.60595215 -911.81317139 658.33666992 C-941.60059813 737.21642155 -960.4520903 819.94783732 -970.84570312 927.04888916 C-970.9482007 928.46954279 -971.05235551 929.89007788 -971.15820312 931.31048584 C-974.57574847 977.29044683 -974.53076528 1024.2170555 -971 1070.1875 C-970.90878876 1071.40789978 -970.90878876 1071.40789978 -970.81573486 1072.6529541 C-964.12790187 1161.78543984 -945.06294222 1249.24773728 -894 1385.1875 C-893.6405127 1386.01008301 -893.28102539 1386.83266602 -892.91064453 1387.68017578 C-890.34033302 1393.54700607 -887.68716771 1399.37336171 -885 1405.1875 C-884.72136108 1405.79096252 -884.44272217 1406.39442505 -884.15563965 1407.01617432 C-863.08492232 1452.61948913 -838.99440868 1496.44537161 -811 1538.1875 C-810.06244873 1539.58669678 -810.06244873 1539.58669678 -809.10595703 1541.01416016 C-798.3261894 1557.05597197 -787.24671259 1572.87029809 -775.37890625 1588.12890625 C-773.79182158 1590.16944368 -772.21626756 1592.21900144 -770.65234375 1594.27734375 C-756.1303355 1613.38027817 -740.50847085 1631.71545757 -724.40625 1649.5 C-722.51190353 1651.6157636 -720.64189565 1653.74720015 -718.77954102 1655.89086914 C-715.29847182 1659.87032345 -711.7391051 1663.76605292 -708.12109375 1667.62109375 C-707.48014267 1668.30409042 -706.83919159 1668.9870871 -706.17881775 1669.69078064 C-699.32048932 1676.96138573 -692.28631839 1684.05261451 -685.20874023 1691.10913086 C-683.03575665 1693.27667642 -680.86827637 1695.449625 -678.70117188 1697.62304688 C-677.29198771 1699.03157127 -675.88249394 1700.439786 -674.47265625 1701.84765625 C-673.83916763 1702.4831691 -673.20567902 1703.11868195 -672.55299377 1703.77345276 C-668.77566697 1707.53131345 -664.88689988 1711.10580557 -660.84625244 1714.57936096 C-657.70664962 1717.31404542 -654.70886391 1720.1987375 -651.6875 1723.0625 C-646.4605134 1727.98243773 -641.14137138 1732.64124682 -635.53125 1737.12109375 C-632.99861847 1739.18862782 -630.5926884 1741.34863341 -628.1875 1743.5625 C-623.81299174 1747.54433587 -619.25470925 1751.20492083 -614.58349609 1754.82641602 C-610.76685432 1757.78795484 -607.00788283 1760.80709829 -603.28027344 1763.87988281 C-594.52711738 1771.08657557 -585.49359079 1777.85106878 -576.31445312 1784.50390625 C-574.18477707 1786.05308832 -572.06715799 1787.61707549 -569.953125 1789.1875 C-548.13084445 1805.30241487 -525.25346834 1820.23081435 -502 1834.1875 C-501.1347168 1834.71069824 -500.26943359 1835.23389648 -499.37792969 1835.77294922 C-485.15629103 1844.36100716 -470.68351987 1852.41815306 -456 1860.1875 C-454.93652344 1860.75082031 -453.87304688 1861.31414062 -452.77734375 1861.89453125 C-401.14701004 1889.15583975 -347.66944996 1911.5574114 -292 1929.1875 C-291.34596191 1929.3950592 -290.69192383 1929.60261841 -290.01806641 1929.81646729 C-209.2034121 1955.40420042 -124.22639354 1970.28815805 -28.25 1973.69018555 C-25.99987901 1973.75000322 -23.7499569 1973.8151868 -21.5 1973.88085938 C59.86497658 1976.16432202 141.72627252 1967.49710672 221 1949.1875 C221.73808899 1949.01732361 222.47617798 1948.84714722 223.2366333 1948.67181396 C248.13718475 1942.90451925 272.62321892 1935.85681463 297 1928.1875 C297.76850281 1927.94622375 298.53700562 1927.70494751 299.32879639 1927.45635986 C365.24906519 1906.70992411 429.8104048 1878.33193508 489.16650391 1842.87402344 C491.9705937 1841.2050029 494.78573046 1839.55648484 497.60546875 1837.9140625 C517.25777325 1826.44617738 536.33037262 1814.19022093 555 1801.1875 C555.70398926 1800.70104004 556.40797852 1800.21458008 557.13330078 1799.71337891 C568.57312337 1791.8078974 579.65014395 1783.4631442 590.66748047 1774.98095703 C592.66045573 1773.44857308 594.65820448 1771.92296434 596.66015625 1770.40234375 C608.42588861 1761.43589344 619.88357917 1752.09769753 631.06884766 1742.41748047 C634.42762229 1739.51458742 637.8370622 1736.70110114 641.3125 1733.9375 C648.42146031 1728.1686677 654.95574979 1721.77670586 661.57861328 1715.46533203 C663.81748036 1713.35919876 666.08244074 1711.28431604 668.35449219 1709.21412659 C676.50523753 1701.76908729 684.32869615 1694.01130209 692.12255859 1686.1953125 C694.38915993 1683.92330631 696.66111959 1681.65675556 698.93359375 1679.390625 C700.40136271 1677.92219583 701.86882176 1676.4534568 703.3359375 1674.984375 C704.00273529 1674.31960144 704.66953308 1673.65482788 705.35653687 1672.96990967 C709.20235715 1669.10509483 712.87034907 1665.13594836 716.42462158 1661.00099182 C718.99065099 1658.04711528 721.69042229 1655.22068525 724.375 1652.375 C729.10196376 1647.32839056 733.57509143 1642.15415852 737.8984375 1636.75390625 C739.98001427 1634.21190637 742.1503838 1631.79220665 744.375 1629.375 C748.43626167 1624.91820676 752.15413522 1620.25787032 755.84545898 1615.49633789 C758.79644135 1611.6959158 761.82513535 1607.9834942 764.9375 1604.3125 C770.34507705 1597.86598689 775.37062813 1591.16081328 780.36865234 1584.39404297 C782.06971021 1582.09321073 783.77865023 1579.79837375 785.48828125 1577.50390625 C792.30518596 1568.33341287 798.97930448 1559.08879022 805.36376953 1549.61181641 C806.56108006 1547.83782453 807.76326656 1546.06712088 808.96826172 1544.29833984 C819.68530732 1528.5594262 829.74919113 1512.57460607 839.30322266 1496.10205078 C840.77308989 1493.577263 842.2596407 1491.0642949 843.76171875 1488.55859375 C850.35339785 1477.54954261 856.45420062 1466.2856904 862.50732422 1454.97314453 C863.81149146 1452.53929628 865.12433667 1450.11047269 866.44140625 1447.68359375 C888.25699298 1407.28684736 905.77101914 1364.44581326 921 1321.1875 C921.23805359 1320.51176941 921.47610718 1319.83603882 921.72137451 1319.13983154 C951.07083825 1235.58902945 967.33002704 1148.70164195 973 929.1875 C972.93683594 928.37671997 972.87367187 927.56593994 972.80859375 926.73059082 C966.048479 840.99891497 948.74286528 756.41301061 912 653.1875 C911.72627563 652.48534363 911.45255127 651.78318726 911.17053223 651.05975342 C902.19229988 628.09081194 892.48675096 605.5065113 882 583.1875 C881.69815796 582.54363342 881.39631592 581.89976685 881.08532715 581.23638916 C873.72484731 565.54590657 866.03911294 550.0809927 857.55371094 534.96240234 C855.9002785 532.00939902 854.26568659 529.04644757 852.6328125 526.08203125 C840.92929209 504.9068093 828.32275021 484.37852986 815 464.1875 C814.30777344 463.12917969 813.61554688 462.07085937 812.90234375 460.98046875 C795.37660383 434.37557695 776.30957803 408.72824012 756 384.1875 C754.56231259 382.41681882 753.12481798 380.64598108 751.6875 378.875 C743.6256135 369.03248813 735.32931089 359.42089807 726.66796875 350.1015625 C724.66543195 347.91431147 722.70590733 345.70917288 720.76318359 343.4699707 C717.28855863 339.49419981 713.734301 335.60382824 710.12109375 331.75390625 C709.48014267 331.07090958 708.83919159 330.3879129 708.17881775 329.68421936 C701.32048932 322.41361427 694.28631839 315.32238549 687.20874023 308.26586914 C685.03575665 306.09832358 682.86827637 303.925375 680.70117188 301.75195312 C679.29198771 300.34342873 677.88249394 298.935214 676.47265625 297.52734375 C675.83916763 296.8918309 675.20567902 296.25631805 674.55299377 295.60154724 C670.77566697 291.84368655 666.88689988 288.26919443 662.84625244 284.79563904 C659.70664962 282.06095458 656.70886391 279.1762625 653.6875 276.3125 C648.4605134 271.39256227 643.14137138 266.73375318 637.53125 262.25390625 C634.99861847 260.18637218 632.5926884 258.02636659 630.1875 255.8125 C625.81491564 251.83241534 621.25830709 248.17402503 616.59008789 244.55297852 C612.72442218 241.55221218 608.91092864 238.49788847 605.12792969 235.39355469 C597.25156937 228.93040772 589.22802223 222.71084962 581.02001953 216.67480469 C579.70314689 215.70521463 578.38888093 214.73207116 577.07763672 213.75488281 C539.56684935 185.80492256 499.3187637 161.05468277 458 139.1875 C457.09459473 138.70394043 456.18918945 138.22038086 455.25634766 137.72216797 C403.66383312 110.17077824 349.76062458 87.81877692 294 70.1875 C293.34360535 69.9799408 292.68721069 69.77238159 292.01092529 69.55853271 C213.12792109 44.69784815 130.71184796 30.02447406 -12.51953125 25.24169922 Z " fill="#1A6B27" transform="translate(999,-0.1875)"/>
<path d="M0 0 C4.1467554 1.75085228 6.82676573 4.05598225 9 8 C9.33082932 12.02246446 9.23116638 15.97385218 9 20 C9.82564453 20.185625 9.82564453 20.185625 10.66796875 20.375 C41.25862847 27.96338071 74.8748728 42.4287159 99 63 C99.74507812 63.63164063 100.49015625 64.26328125 101.2578125 64.9140625 C115.82733508 78.34087742 122.67915984 97.64290774 124 117 C124.12761455 121.84701066 124.11683818 126.69065692 124.09765625 131.5390625 C124.09578668 132.91482491 124.09436533 134.290588 124.09336853 135.66635132 C124.08958572 139.25341696 124.07979262 142.84044086 124.06866455 146.42749023 C124.05835835 150.101394 124.05385136 153.77530464 124.04882812 157.44921875 C124.03816571 164.63283134 124.02114146 171.81640978 124 179 C124.78318604 179.30019043 125.56637207 179.60038086 126.37329102 179.90966797 C135.35303669 183.63710957 142.31825658 193.28008138 146 202 C148.8850067 214.18100004 148.25795981 229.28659358 144 241 C143.58621094 242.19753906 143.17242188 243.39507813 142.74609375 244.62890625 C138.39915973 256.64322178 130.03049541 273.9847523 118 280 C117.35937177 282.02447198 117.35937177 282.02447198 116.96484375 284.48046875 C116.79533203 285.39763672 116.62582031 286.31480469 116.45117188 287.25976562 C116.28166016 288.22591797 116.11214844 289.19207031 115.9375 290.1875 C115.76412109 291.13431641 115.59074219 292.08113281 115.41210938 293.05664062 C114.56682699 297.69759714 113.75902988 302.34409508 113 307 C113.82242187 307.61746094 114.64484375 308.23492188 115.4921875 308.87109375 C136.7666253 324.95258375 152.1855612 343.00674979 156.3059082 370.00439453 C158.08537324 383.27936331 156.66622512 394.32281192 153 407 C152.65920097 408.33144467 152.32138015 409.66373517 152 411 C152.63397705 411.08757568 153.2679541 411.17515137 153.92114258 411.26538086 C158.23976905 412.29581041 162.18013687 414.0254484 166.26171875 415.75390625 C167.16638382 416.13304672 168.07104889 416.51218719 169.00312805 416.90281677 C170.92300859 417.70849445 172.84194807 418.51641777 174.76000977 419.32641602 C177.63026464 420.53833332 180.50329423 421.74344559 183.37695312 422.94726562 C192.26245492 426.67716971 201.13012077 430.44969545 209.95703125 434.31640625 C210.67082443 434.62485977 211.38461761 434.93331329 212.12004089 435.25111389 C232.98400924 444.47598282 246.2029893 461.10286335 254.80859375 481.6484375 C257.47696745 489.15487892 258.36374375 495.7006004 258.375 503.625 C258.39949219 504.54023437 258.42398438 505.45546875 258.44921875 506.3984375 C258.47385869 512.08204963 257.96104428 515.59420689 254 520 C249.80164958 522.90849577 244.90744687 522.75856434 240 522 C236.62659599 520.33395149 234.52549473 518.08179432 232.8671875 514.66796875 C231.9447449 511.83000345 231.73128448 509.47596534 231.625 506.5 C230.52271064 491.29214346 223.95967656 478.47085927 213 468 C203.52454609 460.56979131 192.03760037 456.56116121 181 452.0625 C179.13892115 451.29589653 177.27824133 450.52832358 175.41796875 449.75976562 C172.65869129 448.62031833 169.89884418 447.48242685 167.13647461 446.35049438 C162.56626276 444.47764403 158.00573083 442.58566664 153.4609375 440.65185547 C152.58324707 440.27870712 151.70555664 439.90555878 150.80126953 439.52110291 C149.1368513 438.81162472 147.4736995 438.09916593 145.81201172 437.38331604 C142.04133792 435.6320631 142.04133792 435.6320631 138 435 C136.60417428 436.41976553 136.60417428 436.41976553 135.125 438.3125 C127.93273159 446.75819278 119.33144498 453.81859307 110.71484375 460.75390625 C107.89326505 463.0883059 105.19409288 465.51990598 102.5 468 C98.05406536 472.09228075 93.4559628 475.92243114 88.75390625 479.71484375 C85.89917867 482.08366025 83.1656079 484.54926417 80.4375 487.0625 C64.8552303 501.39102386 64.8552303 501.39102386 56.3203125 501.28125 C51.72539767 500.72429063 49.0372393 498.21011252 46.125 494.8125 C44.49108627 490.72771568 44.01193657 487.32277751 45 483 C46.8829087 479.84371395 49.31983519 477.49284146 52 475 C52.76054688 474.27941406 53.52109375 473.55882812 54.3046875 472.81640625 C58.53148084 468.92046414 62.90538123 465.23804918 67.375 461.625 C71.92860712 457.94363311 76.23582516 454.07225527 80.51904297 450.08642578 C83.75176204 447.09587359 87.06687666 444.26228315 90.5 441.5 C95.076121 437.81533114 99.42657093 433.9515738 103.71948242 429.9453125 C106.50491459 427.34818996 109.34986334 424.89069908 112.3125 422.5 C121.63571556 414.33735069 127.47568122 401.16375596 129 389 C130.10679752 372.14401811 126.2928526 357.4301789 115.25 344.25 C111.03834755 339.72002498 106.19813917 336.31274853 101 333 C100.77449463 333.8470752 100.54898926 334.69415039 100.31665039 335.56689453 C99.23055927 338.39882728 98.42564851 339.95171006 96.65014648 342.27294922 C87.90248007 353.8419502 87.69132182 363.99053502 88.0625 378.125 C88.10378017 381.16573081 88.13065363 384.20581001 88.14268494 387.24679565 C88.15403281 389.12130651 88.1840266 390.99583084 88.2358551 392.86965942 C88.33189127 399.40019653 87.26664928 403.59380659 82.65234375 408.4921875 C81.75644531 409.27851562 80.86054687 410.06484375 79.9375 410.875 C78.45443359 412.17824219 78.45443359 412.17824219 76.94140625 413.5078125 C73.65076022 416.29590303 70.3160316 419.01008201 66.92578125 421.67578125 C63.0987741 424.71592712 59.33148074 427.82589005 55.5625 430.9375 C54.07424632 432.165398 52.58596557 433.39326319 51.09765625 434.62109375 C50.39012207 435.20487793 49.68258789 435.78866211 48.95361328 436.39013672 C46.47431339 438.43318889 43.9881283 440.467712 41.5 442.5 C36.82330066 446.32120556 32.16092473 450.15958905 27.5 454 C26.0338699 455.20705037 24.56772437 456.41408198 23.1015625 457.62109375 C20.63530619 459.651694 18.17141008 461.68505341 15.7109375 463.72265625 C13.90781189 465.21035906 12.0973749 466.68927753 10.27734375 468.15625 C8.87119199 469.29467819 7.4836288 470.45708015 6.12890625 471.65625 C2.10029501 475.00567274 -1.35953941 475.89038015 -6.46484375 475.60546875 C-11.28766388 474.4536396 -14.40444546 471.2594092 -18 468 C-19.78534867 466.53393872 -21.57730986 465.07590169 -23.375 463.625 C-25.25045553 462.08388752 -27.12545295 460.54221738 -29 459 C-30.83287057 457.49943458 -32.66620121 455.99943092 -34.5 454.5 C-35.41523437 453.75105469 -36.33046875 453.00210937 -37.2734375 452.23046875 C-39.02817784 450.79500065 -40.78335155 449.36006204 -42.5390625 447.92578125 C-48.94998276 442.68664551 -55.34332235 437.42646278 -61.73193359 432.16015625 C-65.72889509 428.86633915 -69.73386879 425.58294603 -73.75 422.3125 C-77.84857274 418.9556935 -81.93486024 415.58469874 -86 412.1875 C-86.55268555 411.73093018 -87.10537109 411.27436035 -87.67480469 410.80395508 C-91.56976946 407.53138781 -94.38060816 404.85817553 -96 400 C-96.07028761 398.5239052 -96.08430815 397.04474505 -96.0625 395.56713867 C-96.053396 394.67157761 -96.04429199 393.77601654 -96.03491211 392.85331726 C-96.02339111 391.88465225 -96.01187012 390.91598724 -96 389.91796875 C-95.99884021 387.84960929 -96.0002277 385.78124714 -96.00390625 383.71289062 C-96.00829719 380.46481745 -96.00051213 377.21962011 -95.94873047 373.97192383 C-95.76493612 361.36846798 -95.83117935 351.92461308 -103.87109375 341.7980957 C-106.07065945 338.90712983 -107.05462966 336.48282441 -108 333 C-121.82261676 340.19927956 -130.5184478 351.99601229 -135.34375 366.6953125 C-139.94556685 382.856455 -136.61520711 397.90943124 -128.6875 412.4375 C-123.48722457 420.80267424 -116.53208856 426.47493998 -108.921875 432.58203125 C-105.84776341 435.12598189 -102.91830335 437.78121861 -100 440.5 C-95.39025806 444.78985806 -90.62214231 448.80412936 -85.71484375 452.75390625 C-81.94068934 455.8764081 -78.36710497 459.20102471 -74.765625 462.51953125 C-71.99482399 465.00464232 -69.14948638 467.35444333 -66.25 469.6875 C-52.55373777 480.77774953 -52.55373777 480.77774953 -51.5 488.8125 C-51.59041005 493.20971617 -53.45796832 495.43685525 -56.39453125 498.5546875 C-59.8027573 501.6229202 -62.14234305 502.25839745 -66.671875 502.4609375 C-73.0548134 501.19720137 -77.73849197 496.69504772 -82.25 492.3125 C-87.1279984 487.68808708 -92.1433332 483.35593354 -97.38671875 479.14453125 C-99.99847623 477.00125044 -102.50365302 474.7761967 -105 472.5 C-108.39598682 469.40444804 -111.86171531 466.44848793 -115.4375 463.5625 C-120.2637873 459.65647934 -124.86489102 455.55481198 -129.4296875 451.34765625 C-131.68690254 449.28597504 -133.98338299 447.29180666 -136.3125 445.3125 C-139.94666228 442.1653904 -142.96177378 438.72182712 -146 435 C-154.99361225 437.77200378 -163.5843576 441.48049628 -172.25 445.125 C-173.87035754 445.80542895 -175.49071889 446.48584882 -177.11108398 447.16625977 C-179.52075234 448.17845403 -181.93018074 449.19119968 -184.33885193 450.20576477 C-188.76294242 452.06785712 -193.19637296 453.9029273 -197.64453125 455.70703125 C-216.67824736 463.48876244 -228.65203569 472.81551834 -237 492 C-238.48798997 495.83997411 -238.9729077 499.22606335 -239.1171875 503.34765625 C-239.53349906 514.99213545 -239.53349906 514.99213545 -244.52734375 519.86328125 C-248.74278849 523.1171126 -253.91644385 522.52233356 -259 522 C-263.38736313 519.62351164 -265.38209321 516.68341439 -267 512 C-269.43526321 492.61797366 -261.02068126 473.07469987 -249.453125 458.046875 C-237.47985415 443.17561503 -221.78015744 435.50477711 -204.4375 428.4375 C-202.66334928 427.70127627 -200.88975228 426.96371683 -199.11669922 426.22485352 C-194.84544538 424.44894446 -190.56716597 422.69080439 -186.28619385 420.93847656 C-183.04341584 419.60732472 -179.80884742 418.25708409 -176.57421875 416.90625 C-174.59157347 416.08230358 -172.60854561 415.25927665 -170.625 414.4375 C-169.7477124 414.07390381 -168.8704248 413.71030762 -167.96655273 413.33569336 C-162.23993629 411 -162.23993629 411 -160 411 C-160.27714844 410.14277344 -160.55429687 409.28554688 -160.83984375 408.40234375 C-161.20207031 407.25894531 -161.56429687 406.11554688 -161.9375 404.9375 C-162.29714844 403.81214844 -162.65679688 402.68679688 -163.02734375 401.52734375 C-168.79223211 380.62094137 -164.03260703 358.28463426 -153.6875 339.6875 C-144.97002561 325.60982801 -133.59083391 316.16865368 -120 307 C-120.66872621 301.24370967 -121.50317803 295.56081561 -122.625 289.875 C-122.81642578 288.71677734 -122.81642578 288.71677734 -123.01171875 287.53515625 C-124.1025088 282.15453642 -125.84300651 279.71000237 -130.18994141 276.40429688 C-142.36379231 266.95946407 -151.59151263 248.36069357 -154.62890625 233.55078125 C-156.18278538 218.68261144 -157.33516457 203.66596453 -147.91015625 191.24609375 C-143.77221422 186.38666439 -139.44445005 182.33333676 -134 179 C-133.34 179 -132.68 179 -132 179 C-132.00888245 178.2005899 -132.01776489 177.40117981 -132.0269165 176.57754517 C-132.10781894 168.96022328 -132.16834215 161.34311624 -132.20724869 153.7254734 C-132.22792486 149.81125857 -132.25586511 145.89740528 -132.30175781 141.98339844 C-132.63424873 112.85405797 -131.0710854 87.05413209 -110.125 64.4375 C-88.51750208 43.94258327 -55.2663716 33.7148048 -28 23 C-27.20190918 22.68208496 -26.40381836 22.36416992 -25.58154297 22.03662109 C-22.5741309 20.86414742 -20.25814736 20 -17 20 C-17.06960938 19.21496094 -17.13921875 18.42992187 -17.2109375 17.62109375 C-17.70830336 7.96982768 -17.70830336 7.96982768 -14.125 3.8125 C-9.80258179 -0.47859634 -5.90202829 -0.56356173 0 0 Z " fill="#FCFDFC" transform="translate(1004,454)"/>
<path d="M0 0 C4.48070783 2.24035391 6.8144257 4.466957 9 9 C9.48048884 12.71933952 9.31081955 16.27016541 9 20 C8.91105469 21.28390625 8.91105469 21.28390625 8.8203125 22.59375 C7.02628264 37.12101615 -1.60748866 49.22145547 -12 59 C-13.05960938 59.74894531 -14.11921875 60.49789062 -15.2109375 61.26953125 C-18.95470102 64.93464427 -19.29966321 67.95182454 -20 73 C-20.25837807 74.50601224 -20.52139838 76.01123542 -20.7890625 77.515625 C-20.92143311 78.28092529 -21.05380371 79.04622559 -21.19018555 79.8347168 C-25.10439416 101.57714569 -34.41804656 121.47114812 -46.58984375 139.80078125 C-48.92098398 143.43632682 -50.26794137 145.93624379 -50.09667969 150.31860352 C-50.07136169 151.16370987 -50.0460437 152.00881622 -50.0199585 152.87953186 C-49.97140717 154.24047218 -49.97140717 154.24047218 -49.921875 155.62890625 C-49.89343525 157.57091288 -49.86881984 159.51297857 -49.84765625 161.45507812 C-49.80898958 164.50362695 -49.75072517 167.54472185 -49.62646484 170.59106445 C-48.99647699 187.04447056 -48.99647699 187.04447056 -52.3265686 191.95690918 C-55.52515989 195.27416086 -59.18104307 197.61534108 -63.16838074 199.87686157 C-66.28570759 201.78838852 -68.95439665 204.21017231 -71.6875 206.625 C-72.76028755 207.54334121 -73.83432559 208.46022566 -74.91015625 209.375 C-75.42723145 209.81585937 -75.94430664 210.25671875 -76.47705078 210.7109375 C-80.60083331 214.20141069 -84.80895589 217.59095829 -89 221 C-90.83379879 222.49943092 -92.66712943 223.99943458 -94.5 225.5 C-95.39847656 226.23476563 -96.29695312 226.96953125 -97.22265625 227.7265625 C-99.1485149 229.30300376 -101.0728929 230.88125492 -102.99609375 232.4609375 C-103.96675781 233.25757813 -104.93742188 234.05421875 -105.9375 234.875 C-107.25041016 235.95394531 -107.25041016 235.95394531 -108.58984375 237.0546875 C-109.38519531 237.69664062 -110.18054688 238.33859375 -111 239 C-111.66128906 239.62132812 -112.32257813 240.24265625 -113.00390625 240.8828125 C-115 242 -115 242 -117.30078125 241.5703125 C-120.99945743 239.41855009 -124.01736602 236.73278964 -127.1875 233.875 C-128.52869363 232.68868462 -129.87114193 231.50378618 -131.21484375 230.3203125 C-132.1891333 229.46034668 -132.1891333 229.46034668 -133.18310547 228.58300781 C-136.24583387 225.91454088 -139.42416754 223.40111088 -142.61328125 220.88671875 C-145.24484246 218.80645023 -147.84290471 216.68867752 -150.4375 214.5625 C-151.35789062 213.80839844 -152.27828125 213.05429687 -153.2265625 212.27734375 C-155.03530852 210.79213399 -156.84266818 209.30523376 -158.6484375 207.81640625 C-159.52757812 207.09324219 -160.40671875 206.37007812 -161.3125 205.625 C-162.15546631 204.90779785 -162.99843262 204.1905957 -163.86694336 203.45166016 C-166.13636872 201.67580342 -168.11621337 200.31138654 -170.58276367 198.91333008 C-175.29359668 196.07285351 -179.98604495 193.16513686 -181.73623657 187.70178223 C-182.75313607 181.18801584 -182.33980608 174.61967853 -182 168.0625 C-181.85469626 164.1786654 -181.75082455 160.29618503 -181.6875 156.41015625 C-181.67210175 155.48619049 -181.65670349 154.56222473 -181.64083862 153.61026001 C-181.67299544 145.74181573 -183.45868161 140.52867243 -188 134 C-188.67804687 132.906875 -189.35609375 131.81375 -190.0546875 130.6875 C-190.65539062 129.800625 -191.25609375 128.91375 -191.875 128 C-199.28399817 116.10884073 -203.70880302 102.81456066 -207.4375 89.375 C-207.8080249 88.04384155 -207.8080249 88.04384155 -208.18603516 86.68579102 C-209.54922519 81.51237309 -210.37214975 76.52341581 -210.72485352 71.18286133 C-211.32136502 66.45046619 -213.40860921 63.30945148 -216.984375 60.3671875 C-218.52953328 59.22163912 -220.07648704 58.07850955 -221.625 56.9375 C-233.31888905 47.3977484 -239.55437741 32.36419979 -241.421875 17.68359375 C-241.6438251 12.75753457 -241.50277587 9.00558276 -238.75 4.8125 C-236.08202466 2.08388885 -235.48590816 1.6182273 -232 1 C-230.53983725 3.41557788 -229.08181403 5.83240371 -227.625 8.25 C-227.2125 8.93191406 -226.8 9.61382813 -226.375 10.31640625 C-225.97539063 10.98027344 -225.57578125 11.64414062 -225.1640625 12.328125 C-224.79748535 12.9355957 -224.4309082 13.54306641 -224.05322266 14.16894531 C-223 16 -223 16 -221.98291016 18.16088867 C-220.70637358 20.54940085 -219.4556251 20.94953815 -217 22 C-215.7423297 22.80057584 -214.49243957 23.61348533 -213.25 24.4375 C-203.49879194 30.45193125 -193.39559732 31.83113851 -182.15234375 29.37890625 C-179.3437955 28.40220864 -176.69951266 27.24938983 -174 26 C-171.75625445 24.99708169 -169.50973289 24.00052701 -167.26318359 23.00390625 C-165.71557044 22.31284366 -164.17136115 21.61408645 -162.63134766 20.90625 C-155.04265109 17.4459794 -147.50622277 14.93326285 -139.3125 13.375 C-137.45044922 13.01535156 -137.45044922 13.01535156 -135.55078125 12.6484375 C-133.79314453 12.32746094 -133.79314453 12.32746094 -132 12 C-131.0203125 11.814375 -130.040625 11.62875 -129.03125 11.4375 C-104.13222947 7.84382693 -79.05547183 15.82681934 -56.95654297 26.72802734 C-48.14026977 31.03158911 -37.98222399 31.36110535 -28.48046875 29.19921875 C-16.37618749 25.02087255 -8.75879015 17.23249168 -3 6 C-2.49146484 5.02740234 -2.49146484 5.02740234 -1.97265625 4.03515625 C-1.29182717 2.70173523 -0.64092116 1.35305577 0 0 Z " fill="#1B6C28" transform="translate(1116,656)"/>
<path d="M0 0 C1.63569946 0.59735962 1.63569946 0.59735962 3.30444336 1.20678711 C68.04930818 25.20869016 68.04930818 25.20869016 80.4375 50.0625 C84.33569236 59.10752445 84.59271597 68.40142627 84.53515625 78.12890625 C84.53303383 79.50815529 84.53303383 79.50815529 84.53086853 80.91526794 C84.52532312 83.81854671 84.51278117 86.72174501 84.5 89.625 C84.49497793 91.60742075 84.49041627 93.58984273 84.48632812 95.57226562 C84.47537164 100.4023742 84.45814542 105.23242351 84.4375 110.0625 C81.34756354 108.87383161 78.44458415 107.59498554 75.56640625 105.9609375 C63.58894956 99.3154835 51.44256578 94.33324791 38.4375 90.0625 C37.76348145 89.83836426 37.08946289 89.61422852 36.39501953 89.38330078 C8.75676687 80.34275084 -23.25620108 78.9565128 -51.5625 85.0625 C-52.38588867 85.22878906 -53.20927734 85.39507813 -54.05761719 85.56640625 C-75.12651966 89.85483721 -93.86225848 97.66934832 -112.62744141 108.06616211 C-114.5625 109.0625 -114.5625 109.0625 -117.5625 110.0625 C-117.66501646 103.62546602 -117.73442681 97.18864711 -117.78222656 90.75097656 C-117.80218058 88.56697727 -117.82935371 86.38303027 -117.86425781 84.19921875 C-118.16005371 65.19868223 -117.02816818 49.10233714 -103.5625 34.4375 C-85.37946491 17.32932413 -56.68533492 8.88986168 -33.64501953 0.234375 C-31.61358354 -0.53791177 -29.5930051 -1.33948181 -27.58544922 -2.171875 C-17.16405043 -6.3583561 -10.15719449 -3.74761365 0 0 Z " fill="#1C6C29" transform="translate(1016.5625,502.9375)"/>
<path d="M0 0 C1.27617188 -0.00773437 2.55234375 -0.01546875 3.8671875 -0.0234375 C10.72753207 -0.00926323 17.02918401 0.31555678 23.625 2.25 C24.58148437 2.51039062 25.53796875 2.77078125 26.5234375 3.0390625 C39.91215674 7.55828319 50.4565733 16.73291608 56.9375 29.25 C61.36783615 38.3899485 63.39849896 47.53734787 64.91015625 57.52148438 C66.22241108 65.18752009 68.97062206 70.85413734 74.625 76.25 C72.42773438 77.86132812 72.42773438 77.86132812 70.23046875 79.47265625 C66.11198457 84.03204872 65.17089823 89.86581909 64.25 95.75 C60.72805862 116.17726001 51.91951137 135.83804013 34.625 148.25 C22.35030087 155.25030648 11.42455851 158.41895444 -2.6875 158.5 C-4.0168457 158.5309375 -4.0168457 158.5309375 -5.37304688 158.5625 C-11.06011384 158.59568493 -15.78708823 157.7941387 -21.16040039 155.91577148 C-24.34424392 154.95861777 -27.07565675 155.03482544 -30.375 155.25 C-30.519375 156.384375 -30.66375 157.51875 -30.8125 158.6875 C-31.375 162.25 -31.375 162.25 -32.375 163.25 C-37.17212852 163.80108256 -41.78234854 164.10118474 -45.9375 161.375 C-48.375 159.25 -48.375 159.25 -49.375 157.25 C-49.4058477 154.22692586 -49.30764591 151.2169509 -49.21484375 148.1953125 C-49.37735786 145.20663832 -49.96909273 143.81941673 -51.375 141.25 C-51.98105557 134.88641651 -51.3730175 133.21723387 -47.375 128.25 C-46.98657335 126.08905139 -46.98657335 126.08905139 -46.875 123.75 C-46.58258749 119.47079252 -45.52663004 117.3061261 -42.375 114.25 C-40.00886544 113.06693272 -38.50719264 113.11645392 -35.875 113.125 C-34.68390625 113.12113281 -34.68390625 113.12113281 -33.46875 113.1171875 C-31.375 113.25 -31.375 113.25 -29.375 114.25 C-29.53355469 114.80171875 -29.69210937 115.3534375 -29.85546875 115.921875 C-31.34552893 122.59913715 -31.2436769 129.51985534 -27.77734375 135.52734375 C-24.04998611 140.10607556 -19.13128392 142.42650896 -13.375 143.25 C0.98657424 144.29373405 0.98657424 144.29373405 13.625 138.25 C20.08629852 130.74285115 20.51971421 123.1962509 20.5 113.625 C20.520625 112.33464844 20.54125 111.04429688 20.5625 109.71484375 C20.60924965 106.55924249 20.62947279 103.40587395 20.625 100.25 C19.50351562 100.66572266 19.50351562 100.66572266 18.359375 101.08984375 C16.88210938 101.63318359 16.88210938 101.63318359 15.375 102.1875 C13.91320312 102.72697266 13.91320312 102.72697266 12.421875 103.27734375 C-0.94050165 107.92431552 -16.53681837 105.59464665 -29.28515625 99.96484375 C-42.37926618 92.69933298 -49.40257215 81.41832512 -53.80078125 67.41015625 C-54.40950873 65.12018146 -54.86410661 62.82628024 -55.3125 60.5 C-56.43395418 55.14505631 -58.83225474 52.27849684 -63.375 49.25 C-62.34569631 46.84829139 -61.47618716 45.33977984 -59.50390625 43.58984375 C-56.77355591 40.58896329 -55.52724499 37.27980275 -54.0625 33.5625 C-47.61034961 18.1591391 -36.82970051 8.66053628 -21.375 2.25 C-14.41774686 -0.44490438 -7.38052895 -0.04446102 0 0 Z " fill="#FBFCFB" transform="translate(918.375,1381.75)"/>
<path d="M0 0 C0.40729228 2.32156597 0.74438677 4.6568787 1 7 C2.50065654 6.8831456 4.0005103 6.75597952 5.5 6.625 C6.3353125 6.55539062 7.170625 6.48578125 8.03125 6.4140625 C11.15851845 6.04246954 11.15851845 6.04246954 14.7421875 4.9765625 C19.3868861 3.77315335 23.84846615 3.7045092 28.625 3.75 C29.85476563 3.73839844 29.85476563 3.73839844 31.109375 3.7265625 C35.87060964 3.74187194 39.46587895 4.44814309 44 6 C46.35096976 5.0421975 48.68351201 4.03842565 51 3 C54.90378107 2.46180882 58.31715951 2.76309615 62.0625 4.0625 C66.65863665 5.52935212 70.51444374 4.49518542 75 3 C82.0041689 2.44451087 88.50150322 3.46687829 95.3125 5 C102.57883414 6.70758046 102.57883414 6.70758046 110 7 C110.144375 5.865625 110.28875 4.73125 110.4375 3.5625 C111 0 111 0 112 -1 C116.49342242 -1.04641965 120.09092644 -0.56091773 123.9375 1.8125 C128.04724253 6.17131783 128.35399835 9.78823654 128.27734375 15.60546875 C127.92911007 18.61204969 126.55940539 20.44824573 125 23 C125.79950593 25.89992799 125.79950593 25.89992799 127 29 C127.48466786 35.10681499 126.53149424 38.49675165 124 44 C124.33 44.66 124.66 45.32 125 46 C125.7113366 53.1743377 125.95805975 59.47484775 121.484375 65.40625 C119.13903806 67.92440124 117.13902916 69.55604659 114 71 C110.125 70.75 110.125 70.75 107 70 C107.15726563 69.05511719 107.31453125 68.11023437 107.4765625 67.13671875 C109.53957131 52.52312789 109.4202828 38.2840547 100.3125 26.0625 C95.83263366 21.41164639 90.35651784 18.21462775 83.85009766 17.79858398 C82.79870605 17.82251221 81.74731445 17.84644043 80.6640625 17.87109375 C79.59881348 17.88970459 78.53356445 17.90831543 77.43603516 17.92749023 C76.63214355 17.95141846 75.82825195 17.97534668 75 18 C74.92381907 25.010834 74.87134505 32.02156089 74.83520508 39.03271484 C74.820136 41.41687001 74.79967709 43.80099753 74.77368164 46.18505859 C74.73721663 49.61562937 74.72025448 53.045833 74.70703125 56.4765625 C74.69154739 57.53928375 74.67606354 58.602005 74.66011047 59.69692993 C74.65886159 65.21171622 74.8089733 69.27154902 78 74 C79.97401277 75.72495114 79.97401277 75.72495114 82.1875 76.875 C82.90292969 77.28492188 83.61835937 77.69484375 84.35546875 78.1171875 C84.89816406 78.40851563 85.44085937 78.69984375 86 79 C85.46375 79.391875 84.9275 79.78375 84.375 80.1875 C78.9677323 83.9717455 78.9677323 83.9717455 75 89 C74.87895503 90.72934358 74.81999937 92.46319679 74.79125977 94.1965332 C74.77196915 95.28138504 74.75267853 96.36623688 74.73280334 97.48396301 C74.67519537 102.44752797 74.62579408 107.41094609 74.5949707 112.37475586 C74.57336675 114.99468141 74.53923636 117.61453434 74.49243164 120.23413086 C74.42561252 124.00667638 74.39799993 127.77772836 74.37890625 131.55078125 C74.33716026 133.30724724 74.33716026 133.30724724 74.29457092 135.09919739 C74.15523965 140.77769557 74.15523965 140.77769557 76.26625061 145.86453247 C78.81438184 148.10693933 80.82519841 148.97505906 84.17578125 149.453125 C85.21089844 149.38609375 86.24601562 149.3190625 87.3125 149.25 C89.20739088 149.14744748 91.10325335 149.05899679 93 149 C94 150 94 150 94 153.3125 C93 157 93 157 91.44140625 158.31640625 C89.67942521 159.30912322 87.84000958 160.16069738 86 161 C85.34 161.33 84.68 161.66 84 162 C78.43011143 162.42390302 74.17121096 162.09643687 69 160 C65.70583158 160.27916681 62.96875774 160.51562113 60 162 C55.93584589 162.34333718 52.18226988 162.47853781 48.375 160.9375 C44.16809384 159.27687915 40.15679836 160.61440055 36 162 C29.56705154 162.77398394 24.32253893 161.81640081 19 158 C16.70986347 154.5647952 16.82157027 153.014669 17 149 C17.79664063 149.04640625 18.59328125 149.0928125 19.4140625 149.140625 C28.01560909 149.44034133 28.01560909 149.44034133 35 145 C36.25917089 142.48165823 36.14747488 140.71407947 36.17700195 137.89526367 C36.18983719 136.83043259 36.20267242 135.7656015 36.21589661 134.66850281 C36.22328354 133.51332657 36.23067047 132.35815033 36.23828125 131.16796875 C36.246353 129.98407059 36.25442474 128.80017242 36.26274109 127.58039856 C36.27659064 125.07111073 36.28730888 122.56180399 36.29516602 120.05249023 C36.31238264 116.21366716 36.35626318 112.37570418 36.40039062 108.53710938 C36.41051688 106.10156885 36.41903319 103.66602098 36.42578125 101.23046875 C36.44328934 100.0813652 36.46079742 98.93226166 36.47883606 97.74833679 C36.51699254 91.4757324 36.51699254 91.4757324 34.09350586 85.82080078 C32.19516869 84.16974555 30.47857714 82.84464582 28.25 81.6875 C27.1775 81.130625 26.105 80.57375 25 80 C26.74567284 78.07057212 28.17165359 76.90988187 30.5 75.6875 C33.85254086 73.42453492 34.55092494 71.80745435 36 68 C36.46187235 64.16056456 36.48848497 60.34062029 36.51171875 56.4765625 C36.52966995 55.37524994 36.54762115 54.27393738 36.56611633 53.13925171 C36.62013758 49.63453965 36.65408964 46.12996317 36.6875 42.625 C36.7206802 40.24347075 36.75517051 37.86195938 36.79101562 35.48046875 C36.87585944 29.65376742 36.94424404 23.82704837 37 18 C34.78302609 17.92863696 32.56537978 17.87798914 30.34765625 17.8359375 C29.11281494 17.8054834 27.87797363 17.7750293 26.60571289 17.74365234 C19.82575749 18.22567233 14.621609 21.93008859 10.125 26.875 C2.85257231 37.5697466 0.21122915 49.02826994 2.5234375 61.91796875 C2.90434994 63.63207474 3.31256636 65.34053092 3.7578125 67.0390625 C3.83773437 67.68617187 3.91765625 68.33328125 4 69 C2 71 2 71 -0.625 71.5625 C-5.62981688 70.72836385 -8.73748687 67.79891732 -12 64 C-14.80612055 58.9827275 -14.11376655 53.79354157 -13.921875 48.23828125 C-13.83058632 43.94010592 -14.15107369 40.96808031 -16 37 C-16.29568226 33.00828948 -16.0835124 30.25053721 -14.8125 26.4375 C-13.77471682 22.04687884 -14.99389012 20.93506169 -17 17 C-17.65954869 12.88791581 -17.96805924 8.8746544 -16.015625 5.09375 C-11.94446413 -0.03289703 -6.39670046 -3.19835023 0 0 Z " fill="#FCFDFC" transform="translate(1018,1378)"/>
<path d="M0 0 C2.97 0 5.94 0 9 0 C14.75171875 11.38077052 20.30617446 22.84408836 25.75 34.375 C26.14151245 35.20281982 26.5330249 36.03063965 26.93640137 36.88354492 C32.72303944 49.11902334 38.44140394 61.38364754 44.08984375 73.68359375 C46.71858064 79.4030552 49.3831306 85.10542661 52.05322266 90.80566406 C57.53981472 102.51887005 62.98244125 114.25182726 68.35507202 126.01779175 C69.03220399 127.4997587 69.7105996 128.98114896 70.39028931 130.46194458 C71.33428541 132.51980418 72.27332018 134.57985279 73.2109375 136.640625 C74.01990479 138.41228027 74.01990479 138.41228027 74.84521484 140.21972656 C76 143 76 143 76 145 C76.66 145 77.32 145 78 145 C78.09120117 144.33621338 78.18240234 143.67242676 78.27636719 142.98852539 C79.20963164 139.13424396 80.85743039 135.73353683 82.578125 132.18359375 C82.94087524 131.42341446 83.30362549 130.66323517 83.67736816 129.88002014 C84.45724788 128.24713922 85.23963926 126.61545598 86.02429199 124.98486328 C87.68191401 121.53986215 89.3273129 118.08907477 90.97320557 114.63845825 C91.80444096 112.89588631 92.63627009 111.15359748 93.46868896 109.41159058 C96.94607253 102.13057541 100.36386966 94.82388859 103.75 87.5 C104.78774821 85.25780685 105.8255086 83.01561934 106.86328125 80.7734375 C107.37455566 79.66838867 107.88583008 78.56333984 108.41259766 77.42480469 C111.82114419 70.07089961 115.25401381 62.72830786 118.68481445 55.38476562 C119.26905644 54.13412088 119.85328492 52.88346982 120.4375 51.6328125 C120.72791672 51.01114197 121.01833344 50.38947144 121.31755066 49.7489624 C123.15211977 45.82030331 124.98192921 41.88946162 126.80833435 37.95700073 C128.05165401 35.28025619 129.29643713 32.60419327 130.54129028 29.92816162 C131.40188854 28.07661673 132.26043695 26.2241195 133.11889648 24.37158203 C136.93509496 16.17119275 140.91674891 8.06992069 145 0 C147.97 0 150.94 0 154 0 C154 69.63 154 139.26 154 211 C111.76 211 69.52 211 26 211 C26 208.36 26 205.72 26 203 C65.27 203 104.54 203 145 203 C144.67 143.93 144.34 84.86 144 24 C139.71 33.24 135.42 42.48 131 52 C128.68956589 56.95932449 126.37825196 61.91816694 124.0625 66.875 C123.48369191 68.11456837 122.90491706 69.35415226 122.32617188 70.59375 C121.13961005 73.13514925 119.95291433 75.6764859 118.76611328 78.21777344 C117.00882897 81.98083466 115.25233793 85.74426575 113.49609375 89.5078125 C113.20745453 90.12634094 112.91881531 90.74486938 112.62142944 91.38214111 C111.16643341 94.5001421 109.71156683 97.61820343 108.25683594 100.73632812 C105.60595379 106.41799562 102.95417312 112.09923583 100.29821777 117.77853394 C92.79603288 133.82087656 85.34836163 149.88645066 78 166 C77.34 166 76.68 166 76 166 C66.99478999 146.97980162 58.01841068 127.94801094 49.17578125 108.8515625 C46.09294798 102.19433238 42.99183738 95.54574315 39.88690186 88.89880371 C34.98029192 78.39404594 30.07811601 67.88721377 25.1875 57.375 C24.69701172 56.323125 24.20652344 55.27125 23.70117188 54.1875 C19.04208318 44.16396256 14.53723966 34.08275481 10 24 C9.67 85.71 9.34 147.42 9 211 C6.03 211 3.06 211 0 211 C0 141.37 0 71.74 0 0 Z " fill="#FCFDFC" transform="translate(379,1041)"/>
<path d="M0 0 C-1.83806082 6.98463113 -5.57498349 13.17081408 -10.25 18.625 C-14.70970338 20.85485169 -18.11562889 21.01988126 -23 20 C-26.47696447 18.64665124 -29.78606938 16.95368159 -33.1171875 15.27954102 C-45.3148137 9.22197207 -58.6826557 5.66700131 -72 3 C-72.91007813 2.79503906 -73.82015625 2.59007812 -74.7578125 2.37890625 C-106.04116307 -3.93876204 -138.23888062 6.11944031 -166 20 C-170.58824737 20.64235463 -174.00959829 20.53481692 -178.125 18.3125 C-182.60775323 13.98085081 -185.42190746 7.59095217 -188 2 C-188 1.34 -188 0.68 -188 0 C-186.52563477 -1.10986328 -186.52563477 -1.10986328 -184.44140625 -2.3203125 C-183.28705078 -2.99380737 -183.28705078 -2.99380737 -182.109375 -3.6809082 C-181.26890625 -4.1574585 -180.4284375 -4.63400879 -179.5625 -5.125 C-178.70011719 -5.61637451 -177.83773437 -6.10774902 -176.94921875 -6.61401367 C-120.12979406 -38.59056123 -54.4704603 -36.3136402 0 0 Z " fill="#1D6D29" transform="translate(1094,640)"/>
<path d="M0 0 C2.17420322 0.02372837 4.34718295 0.02051815 6.52148438 0.01391602 C25.03616513 0.04978364 40.54178743 4.48628953 54.53710938 17.13696289 C74.93335983 38.30373837 74.37276751 72.48289556 73.89257812 99.82446289 C73.32785123 123.56543679 68.64990836 147.6693521 52.22460938 165.77368164 C50.17926719 167.67632553 48.26021166 168.67792957 45.54492188 169.33618164 C44.22492188 167.68618164 42.90492187 166.03618164 41.54492188 164.33618164 C42.9686852 161.07670316 44.72436752 159.02188117 47.23242188 156.52368164 C55.85888493 146.95614989 59.64840364 134.86388663 61.54492188 122.33618164 C61.85042969 120.4605957 61.85042969 120.4605957 62.16210938 118.54711914 C66.43039062 89.19959135 67.38311813 49.93272332 48.88867188 25.11352539 C40.10557291 15.68826589 27.92051996 10.88784967 15.22558594 10.14086914 C-4.11110615 9.52390476 -22.70101292 8.9892954 -38.70507812 21.33618164 C-51.69898124 33.62624834 -56.13776644 53.41527507 -56.66210938 70.60986328 C-56.76513337 75.70366342 -56.78131379 80.79615243 -56.77075195 85.89086914 C-56.76759847 89.06570007 -56.79109698 92.23959066 -56.81640625 95.41430664 C-56.8769938 114.72618755 -55.74738192 136.56600443 -43.68945312 152.60180664 C-42.45507812 154.33618164 -42.45507812 154.33618164 -41.45507812 157.33618164 C-40.1466071 158.05041255 -38.80788367 158.7099713 -37.45507812 159.33618164 C-35.98888932 160.45092444 -34.53126476 161.57697775 -33.08007812 162.71118164 C-22.08640138 170.41477994 -9.42812729 171.02206423 3.54492188 171.33618164 C3.57932373 171.97942383 3.61372559 172.62266602 3.64916992 173.28540039 C4.45549761 198.31919584 4.45549761 198.31919584 16.54492188 219.33618164 C25.59225531 226.61083976 36.36752244 227.78810472 47.54492188 229.33618164 C47.54492188 232.30618164 47.54492188 235.27618164 47.54492188 238.33618164 C33.2669326 239.27758753 20.83048698 235.58256382 9.55273438 226.78149414 C0.16922068 218.36452263 -4.53068142 202.58443798 -5.45507812 190.33618164 C-5.5192205 187.00077792 -5.51547728 183.67155733 -5.45507812 180.33618164 C-6.63070313 180.41868164 -7.80632812 180.50118164 -9.01757812 180.58618164 C-23.26461024 180.5413091 -37.15190114 174.27120745 -47.39648438 164.57446289 C-68.69591778 141.41587591 -68.55754566 103.66814034 -67.45507812 74.33618164 C-65.87466462 51.00475279 -60.11491716 28.42733213 -42.19335938 12.30102539 C-29.88232518 2.1814842 -15.5547512 -0.18123749 0 0 Z " fill="#F6F9F7" transform="translate(1547.455078125,1074.663818359375)"/>
<path d="M0 0 C38.23283704 0 71.15658464 0.3006023 99 28 C99.68578125 28.65097656 100.3715625 29.30195312 101.078125 29.97265625 C118.19039944 47.45547207 121.37555063 70.87372205 121.14453125 94.203125 C120.72511735 115.65802136 111.82114563 135.59849714 96.47363281 150.62011719 C69.73236883 175.66014768 35.19206508 176 0 176 C0 117.92 0 59.84 0 0 Z M9 9 C9 61.14 9 113.28 9 167 C39.36212202 167 68.73195985 165.04283362 91.34375 142.75390625 C107.14748955 126.36914686 112.39017235 106.82603553 112.30224609 84.52416992 C111.90944152 65.13540942 105.35166726 47.53768173 91.9375 33.375 C79.1983538 21.17609119 64.2018529 14.60720375 47 11 C46.08863281 10.79375 45.17726563 10.5875 44.23828125 10.375 C32.36662956 8.09259967 21.4680002 9 9 9 Z " fill="#F8FAF8" transform="translate(1254,1077)"/>
<path d="M0 0 C37.51570689 0 70.69385491 0.23345924 98.28515625 27.234375 C115.5835405 44.85632615 121.72506279 66.63176898 121.5390625 90.93774414 C120.87127861 111.82435486 114.18356399 131.45039603 100 147 C99.4946875 147.59683594 98.989375 148.19367188 98.46875 148.80859375 C89.05179946 159.21048045 76.0449879 165.51204545 63 170 C62.1646875 170.30421875 61.329375 170.6084375 60.46875 170.921875 C57.99737497 171.75130909 55.53634302 172.39645095 53 173 C51.32550781 173.41765625 51.32550781 173.41765625 49.6171875 173.84375 C32.79955896 177.34337212 17.89184344 176 0 176 C0 117.92 0 59.84 0 0 Z M9 9 C9 61.14 9 113.28 9 167 C39.24442346 167 69.02197922 165.02629135 91.4140625 142.71875 C100.33235401 133.34241934 106.66806355 122.57750845 110 110 C110.20496094 109.26523438 110.40992188 108.53046875 110.62109375 107.7734375 C115.5220155 86.47977748 111.92710121 63.21708235 100.9375 44.5 C88.3005289 25.58548386 68.96294917 15.49945182 47 11 C46.00355469 10.79375 45.00710938 10.5875 43.98046875 10.375 C32.11046913 8.30815605 21.45913835 9 9 9 Z " fill="#F8FAF8" transform="translate(1087,1077)"/>
<path d="M0 0 C1.99026259 1.99026259 2.63867901 3.18022434 3.70141602 5.72314453 C4.0274733 6.49643097 4.35353058 7.26971741 4.68946838 8.06643677 C5.04073288 8.91334076 5.39199738 9.76024475 5.75390625 10.6328125 C6.12631943 11.51943573 6.4987326 12.40605896 6.88243103 13.31954956 C8.11351756 16.25287782 9.33789066 19.18896247 10.5625 22.125 C11.42390587 24.17992792 12.28589209 26.23461264 13.1484375 28.2890625 C14.47329751 31.44475735 15.79784034 34.60058029 17.12063599 37.75714111 C20.87467762 46.71417397 24.66645523 55.65476483 28.47311401 64.58953857 C35.24569191 80.4871533 41.97743544 96.40182925 48.69088745 112.32449341 C53.07946759 122.73309821 57.47859671 133.13695402 61.91015625 143.52734375 C62.304841 144.45330353 62.69952576 145.37926331 63.10617065 146.33328247 C64.98318643 150.73648216 66.86252977 155.13865997 68.74609375 159.5390625 C69.41545924 161.10803254 70.08473518 162.67704078 70.75390625 164.24609375 C71.05506851 164.94709702 71.35623077 165.64810028 71.66651917 166.37034607 C73.30554926 170.22081986 74.67151048 174.01453143 76 178 C38.71 178 1.42 178 -37 178 C-37 174.7 -37 171.4 -37 168 C-4.66 168 27.68 168 61 168 C54.52385927 151.76187654 54.52385927 151.76187654 47.78515625 135.640625 C47.33195007 134.57857346 46.8787439 133.51652191 46.4118042 132.42228699 C45.45486282 130.18050346 44.49691871 127.93914771 43.53799438 125.69821167 C42.0247478 122.16177359 40.51434375 118.62413292 39.00463867 115.08618164 C36.96432275 110.30526033 34.92307712 105.52473814 32.88085938 100.74462891 C28.85123554 91.31182806 24.82836777 81.87616515 20.8125 72.4375 C20.47058624 71.63436371 20.12867249 70.83122742 19.77639771 70.00375366 C14.59340379 57.82442333 9.48982155 45.61386425 4.48754883 33.35913086 C4.03790771 32.26221924 3.5882666 31.16530762 3.125 30.03515625 C2.73570312 29.0800415 2.34640625 28.12492676 1.9453125 27.14086914 C1.18059798 25.06018729 1.18059798 25.06018729 0 24 C-7.66879888 41.99909214 -15.33567593 59.99900198 -23 78 C-23.42073792 78.98816711 -23.84147583 79.97633423 -24.27496338 80.9944458 C-33.74970668 103.24896113 -43.18702782 125.51898898 -52.58300781 147.80688477 C-54.39280541 152.09934605 -56.20480134 156.39087017 -58.01947021 160.68127441 C-58.66203728 162.20079652 -59.30402626 163.72056324 -59.94537354 165.24060059 C-60.79052724 167.242193 -61.63883257 169.24241482 -62.48828125 171.2421875 C-62.95403564 172.34159668 -63.41979004 173.44100586 -63.8996582 174.57373047 C-65 177 -65 177 -66 178 C-67.51928038 178.07179964 -69.04167482 178.08392007 -70.5625 178.0625 C-71.38878906 178.05347656 -72.21507812 178.04445313 -73.06640625 178.03515625 C-73.70449219 178.02355469 -74.34257813 178.01195312 -75 178 C-74.39519935 174.49764782 -73.47842386 171.45216016 -72.07666016 168.18945312 C-71.67684937 167.25221405 -71.27703857 166.31497498 -70.8651123 165.34933472 C-70.20871765 163.83063278 -70.20871765 163.83063278 -69.5390625 162.28125 C-69.08164673 161.21214386 -68.62423096 160.14303772 -68.1529541 159.04153442 C-67.16462547 156.73295065 -66.1741264 154.42529512 -65.18170166 152.11846924 C-63.60897939 148.46276096 -62.04146581 144.80484707 -60.47607422 141.14599609 C-59.94497823 139.90475403 -59.41388082 138.66351258 -58.88278198 137.42227173 C-58.61898617 136.80571339 -58.35519035 136.18915504 -58.08340073 135.55391312 C-57.27799669 133.67208614 -56.47197439 131.79052503 -55.665802 129.9090271 C-50.77770013 118.49830699 -45.94410324 107.06499415 -41.125 95.625 C-39.58251786 91.96594052 -38.03946075 88.30712383 -36.49609375 84.6484375 C-36.12218002 83.76200562 -35.7482663 82.87557373 -35.36302185 81.96228027 C-30.62901504 70.74441164 -25.86468013 59.53942792 -21.09619141 48.33618164 C-20.4117608 46.72803715 -19.72735306 45.11988294 -19.04296875 43.51171875 C-18.70867859 42.72622147 -18.37438843 41.94072418 -18.02996826 41.13142395 C-15.63203656 35.49376047 -13.24559775 29.8513085 -10.86328125 24.20703125 C-9.88663177 21.89550357 -8.90983504 19.58403816 -7.93301392 17.27258301 C-7.31590245 15.81079607 -6.69965686 14.34864327 -6.08432007 12.8861084 C-5.24583027 10.8932231 -4.40447782 8.90156982 -3.5625 6.91015625 C-2.85287109 5.22611694 -2.85287109 5.22611694 -2.12890625 3.50805664 C-1 1 -1 1 0 0 Z " fill="#F4F8F4" transform="translate(977,1075)"/>
<path d="M0 0 C1.51171875 1.6484375 1.51171875 1.6484375 1.51171875 4.6484375 C-0.48828125 7.3359375 -0.48828125 7.3359375 -2.48828125 9.6484375 C-5.45783872 8.23756178 -8.12058378 6.58006075 -10.86328125 4.7734375 C-26.56756183 -4.71408208 -50.02445591 -5.92006582 -67.8125 -2.703125 C-78.37787891 0.01667551 -86.40802372 5.01175717 -92.33203125 14.2421875 C-96.39038742 22.68795575 -97.04181087 33.33722342 -94.80078125 42.44140625 C-93.87203869 44.68973719 -92.82463948 46.61852626 -91.48828125 48.6484375 C-91.1221875 49.2465625 -90.75609375 49.8446875 -90.37890625 50.4609375 C-79.14012027 66.00098724 -53.5438599 69.93204704 -36.20629883 74.92163086 C-17.3022375 80.37562809 0.12177165 86.49190847 11.03125 103.8671875 C16.28256195 113.732449 16.09702893 126.61408443 13.671875 137.375 C9.34701889 148.64583713 1.10364215 156.21702921 -9.48828125 161.6484375 C-22.77901364 167.35527817 -35.17490603 169.02256852 -49.55078125 168.9609375 C-50.57449829 168.95770477 -50.57449829 168.95770477 -51.61889648 168.95440674 C-70.15572164 168.86058372 -91.23709724 167.72921672 -105.265625 153.96875 C-105.87083984 153.31519531 -105.87083984 153.31519531 -106.48828125 152.6484375 C-104.83828125 150.6684375 -103.18828125 148.6884375 -101.48828125 146.6484375 C-96.75155839 148.43588009 -92.31004087 150.73189783 -87.8359375 153.08203125 C-69.62005758 162.41016317 -41.78425774 161.32610179 -22.48828125 155.6484375 C-13.2380893 152.34496594 -5.65867198 147.36481624 0.51171875 139.6484375 C1.22134766 138.78025391 1.22134766 138.78025391 1.9453125 137.89453125 C6.1696398 131.36071014 5.49901508 122.11026106 4.51171875 114.6484375 C2.22542889 106.08584231 -3.76199287 100.01171799 -11.28564453 95.59277344 C-21.50866786 89.96462533 -32.00937941 85.78205654 -43.30078125 82.8359375 C-88.6287901 70.96101571 -88.6287901 70.96101571 -100.36328125 53.7734375 C-106.34525196 43.01003 -107.3164845 30.34531395 -104.796875 18.359375 C-103.88128757 15.63942906 -102.81741698 13.19004501 -101.48828125 10.6484375 C-100.88693359 9.46894531 -100.88693359 9.46894531 -100.2734375 8.265625 C-93.77587538 -2.84614789 -81.88367991 -8.63670449 -69.90625 -12.09765625 C-47.44763483 -16.86559066 -18.38758911 -14.5912287 0 0 Z " fill="#F8FAF9" transform="translate(865.48828125,1087.3515625)"/>
<path d="M0 0 C3.3 0 6.6 0 10 0 C10.00586624 1.32558929 10.01173248 2.65117859 10.01777649 4.01693726 C10.07527282 16.57903407 10.14817233 29.14096223 10.23571491 41.70288658 C10.28022594 48.15933329 10.31952343 54.61571968 10.34643555 61.07226562 C10.37266208 67.31642778 10.41319798 73.56035537 10.46318626 79.80437088 C10.47972519 82.17305178 10.49131945 84.54177312 10.49761391 86.91050339 C10.56780045 110.92038797 11.60621667 137.31256937 28.5 156.1875 C39.71817456 166.883899 52.80994077 168.38746337 67.5546875 168.2109375 C79.22747709 167.89010412 90.10724714 163.79072076 98.8125 155.8125 C113.76644782 139.46665727 116.076394 115.22057688 116.20532227 94.11254883 C116.21522186 93.08681763 116.22512146 92.06108643 116.23532104 91.00427246 C116.26659926 87.65521454 116.2915585 84.3061425 116.31640625 80.95703125 C116.33700496 78.61862342 116.35800214 76.28021908 116.37937927 73.94181824 C116.43429892 67.81813391 116.48383969 61.69441768 116.53222656 55.57067871 C116.58266286 49.3094604 116.63823286 43.04828783 116.69335938 36.78710938 C116.80057212 24.52477875 116.9020974 12.26240824 117 0 C119.97 0 122.94 0 126 0 C126.04654865 13.28356942 126.08198293 26.5671191 126.10362434 39.85075378 C126.11401642 46.02032371 126.12809112 52.18983742 126.15087891 58.359375 C126.17277162 64.32460068 126.18460295 70.28977262 126.18975449 76.2550354 C126.19342097 78.51934656 126.20057975 80.78365513 126.21146011 83.04794312 C126.26906831 95.54521877 125.99916869 107.64625141 124 120 C123.89970112 120.64877609 123.79940224 121.29755219 123.696064 121.96598816 C121.05547828 139.02420397 113.86959799 156.9315169 100 168 C96.47126615 170.3543803 92.85471337 172.23537528 89 174 C88.12601563 174.41636719 87.25203125 174.83273437 86.3515625 175.26171875 C78.52240292 178.31830845 70.76269642 178.41534846 62.4375 178.5 C61.30183594 178.51853027 60.16617188 178.53706055 58.99609375 178.55615234 C44.50949821 178.4492634 32.32856923 173.27247693 21.8125 163.375 C0.40777579 140.86313488 -0.34185093 105.84027672 -0.1953125 76.5625 C-0.19157346 74.34334441 -0.18873071 72.12418714 -0.18673706 69.9050293 C-0.17917067 64.11836027 -0.15958382 58.3317947 -0.1373291 52.54516602 C-0.11671838 46.61866657 -0.10770307 40.6921501 -0.09765625 34.765625 C-0.07633005 23.17703835 -0.0422806 11.58852784 0 0 Z " fill="#F5F8F5" transform="translate(588,1077)"/>
<path d="M0 0 C6.00663167 2.71797665 9.29260827 7.15203386 12 13 C12.89456604 15.92931225 13.13947572 18.58460484 13.17700195 21.64160156 C13.19625481 23.01387909 13.19625481 23.01387909 13.21589661 24.41387939 C13.22328354 25.39620544 13.23067047 26.37853149 13.23828125 27.390625 C13.246353 28.40920593 13.25442474 29.42778687 13.26274109 30.47723389 C13.27656226 32.63242907 13.28729319 34.78764597 13.29516602 36.94287109 C13.30668481 39.14052774 13.32713489 41.33815643 13.35668945 43.53564453 C13.39946951 46.71666415 13.41555011 49.89685302 13.42578125 53.078125 C13.44328934 54.05235413 13.46079742 55.02658325 13.47883606 56.03033447 C13.45541775 63.45438099 11.72324141 68.55056088 7.125 74.375 C2.1672222 78.16624185 -3.24791256 78.51117254 -9.3125 78.37109375 C-13.55795214 77.78487579 -16.18474277 76.19880726 -19 73 C-22.32142309 67.87058513 -24.0959131 62.78257177 -24.17700195 56.66552734 C-24.18983719 55.8171933 -24.20267242 54.96885925 -24.21589661 54.09481812 C-24.22328354 53.18438751 -24.23067047 52.27395691 -24.23828125 51.3359375 C-24.25038887 49.91506332 -24.25038887 49.91506332 -24.26274109 48.46548462 C-24.27656142 46.4599184 -24.28729273 44.45432886 -24.29516602 42.44873047 C-24.30666182 40.41024827 -24.32707537 38.37179559 -24.35668945 36.33349609 C-24.39964199 33.37577013 -24.41557521 30.41893778 -24.42578125 27.4609375 C-24.44328934 26.56265228 -24.46079742 25.66436707 -24.47883606 24.73886108 C-24.45233917 16.88419926 -22.59980701 10.0436765 -17.4375 4 C-11.73697362 -0.67735498 -7.2224056 -1.03438762 0 0 Z " fill="#1E6D2A" transform="translate(926,1395)"/>
<path d="M0 0 C4.84935976 2.47222262 7.35990676 5.28475461 10 10 C10.51757812 13.55175781 10.51757812 13.55175781 10.53125 17.453125 C10.53699036 18.50351959 10.53699036 18.50351959 10.54284668 19.57513428 C10.54555582 21.05091801 10.53826459 22.52675059 10.52148438 24.00244141 C10.50018528 26.23061706 10.52124798 28.45552149 10.546875 30.68359375 C10.57142807 42.46469855 8.56567871 51.27468043 0.28515625 60.01953125 C-8.72766176 67.8306402 -18.38671028 68.22845039 -29.81005859 68.29516602 C-31.18321023 68.30669283 -32.55631682 68.32715633 -33.92919922 68.35668945 C-48.19257584 68.66289531 -48.19257584 68.66289531 -54 64 C-56.93891458 59.92344106 -57.58793667 56.10732216 -57.421875 51.18359375 C-56.68010415 47.34424279 -54.84108004 45.64737004 -52 43 C-48.50107817 40.73186449 -45.41716406 40.70793963 -41.30078125 40.62109375 C-39.36428711 40.56985352 -39.36428711 40.56985352 -37.38867188 40.51757812 C-36.02996094 40.49023032 -34.67123652 40.46354555 -33.3125 40.4375 C-30.64170814 40.37976168 -27.9713519 40.3142956 -25.30078125 40.24609375 C-24.11653564 40.22216553 -22.93229004 40.1982373 -21.7121582 40.17358398 C-19.0850639 40.30523024 -19.0850639 40.30523024 -18 39 C-17.89020607 36.92525376 -17.84407846 34.84708564 -17.82421875 32.76953125 C-17.80037109 31.49142578 -17.77652344 30.21332031 -17.75195312 28.89648438 C-17.7169749 26.86016483 -17.68757908 24.82442378 -17.67407227 22.7878418 C-17.65848926 20.82318479 -17.61659871 18.85879293 -17.57421875 16.89453125 C-17.55963623 15.71737549 -17.54505371 14.54021973 -17.5300293 13.32739258 C-16.69381665 8.07785682 -14.18279129 4.99880153 -10.1875 1.625 C-6.35990051 -0.32632523 -4.24556929 -0.6065099 0 0 Z " fill="#FBFCFB" transform="translate(1236,758)"/>
<path d="M0 0 C3.77821788 2.16585738 6.43373036 4.91760253 8 9 C8.30297852 12.1003418 8.30297852 12.1003418 8.37890625 15.69921875 C8.43014648 17.63571289 8.43014648 17.63571289 8.48242188 19.61132812 C8.50976968 20.97003906 8.53645445 22.32876348 8.5625 23.6875 C8.62023832 26.35829186 8.6857044 29.0286481 8.75390625 31.69921875 C8.77783447 32.88346436 8.8017627 34.06770996 8.82641602 35.2878418 C8.69476976 37.9149361 8.69476976 37.9149361 10 39 C12.00142822 39.12193932 14.00682165 39.17976515 16.01171875 39.2109375 C17.86120117 39.25347656 17.86120117 39.25347656 19.74804688 39.296875 C22.35468108 39.34856829 24.96147146 39.39295229 27.56835938 39.4296875 C28.80779297 39.460625 30.04722656 39.4915625 31.32421875 39.5234375 C32.45947998 39.54325684 33.59474121 39.56307617 34.7644043 39.58349609 C39.51791496 40.19539447 42.82614711 41.94971057 46.375 45.125 C48.6617799 49.17084137 48.76253906 52.45588966 48 57 C46.66079888 60.91227293 44.87259611 63.46327759 41.2878418 65.66821289 C35.95950992 67.82652955 30.56586609 67.48119327 24.90698242 67.44604492 C22.83474433 67.43759075 20.76532193 67.46623881 18.69335938 67.49804688 C6.94640002 67.56181055 -2.41035097 65.55001422 -11.0546875 57.29296875 C-16.69622468 50.64320504 -19.14598544 43.28952367 -19.23828125 34.69921875 C-19.246353 33.98522415 -19.25442474 33.27122955 -19.26274109 32.53559875 C-19.2765588 31.0251405 -19.28729129 29.51465132 -19.29516602 28.00415039 C-19.30668252 26.46499435 -19.32712948 24.92587814 -19.35668945 23.38696289 C-19.39950509 21.15744013 -19.41555322 18.92910232 -19.42578125 16.69921875 C-19.44328934 16.01776291 -19.46079742 15.33630707 -19.47883606 14.63420105 C-19.45632206 9.62783942 -18.10068159 6.86780952 -15 3 C-10.14260414 -1.40554508 -6.10255159 -1.899542 0 0 Z " fill="#FBFCFC" transform="translate(773,759)"/>
<path d="M0 0 C1.14113754 -0.00855011 1.14113754 -0.00855011 2.30532837 -0.01727295 C3.91415012 -0.02671248 5.52299112 -0.03325278 7.13183594 -0.03710938 C9.58563165 -0.04681201 12.03858839 -0.0778428 14.4921875 -0.109375 C16.05728671 -0.11590585 17.62239189 -0.121156 19.1875 -0.125 C20.28304703 -0.1435202 20.28304703 -0.1435202 21.40072632 -0.16241455 C27.26911055 -0.13691509 30.30372122 1.43618977 34.5390625 5.328125 C36.89162025 9.33618634 36.90504783 12.66058299 36.2265625 17.203125 C34.46289668 21.38022826 31.96472265 23.69023632 28.2265625 26.203125 C24.92089844 26.7331543 24.92089844 26.7331543 21.2109375 26.77734375 C20.55450256 26.79150833 19.89806763 26.80567291 19.22174072 26.82026672 C17.13984475 26.86196973 15.05881635 26.87737605 12.9765625 26.890625 C10.88042727 26.91967131 8.78451104 26.9541459 6.6885376 26.99311829 C4.79738794 27.02584759 2.90600158 27.04391483 1.01464844 27.0612793 C-1.67983127 26.88609698 -1.67983127 26.88609698 -2.7734375 28.203125 C-2.88326077 30.26613913 -2.92936315 32.33259767 -2.94921875 34.3984375 C-2.97306641 35.67203125 -2.99691406 36.945625 -3.02148438 38.2578125 C-3.0564151 40.28526046 -3.08583076 42.31213338 -3.09936523 44.33984375 C-3.21187382 58.43630413 -3.21187382 58.43630413 -7.7734375 64.203125 C-11.66387767 66.94411693 -15.14167201 67.7563623 -19.81640625 67.55078125 C-23.21719589 66.94664896 -25.21916472 65.46038932 -27.7734375 63.203125 C-31.70055778 56.78802999 -31.26143854 50.40574311 -31.21948242 43.14575195 C-31.21099868 40.90677086 -31.23972413 38.6703686 -31.27148438 36.43164062 C-31.30991519 28.64326615 -30.97018321 22.0078837 -26.7734375 15.203125 C-26.10441406 14.00623047 -26.10441406 14.00623047 -25.421875 12.78515625 C-19.09823459 3.99801176 -10.6369115 0.06155333 0 0 Z " fill="#FDFDFD" transform="translate(784.7734375,500.796875)"/>
<path d="M0 0 C0.75031494 -0.00807175 1.50062988 -0.01614349 2.27368164 -0.02445984 C3.86748952 -0.03830674 5.46132713 -0.04902618 7.05517578 -0.05688477 C8.67082523 -0.06833984 10.28643879 -0.08868769 11.90185547 -0.1184082 C23.69533231 -0.33536939 33.86800359 0.03540253 42.96875 8.53515625 C51.01499524 17.48455146 51.87312595 26.78481838 51.87060547 38.40551758 C51.87498163 40.66629232 51.91136053 42.92511631 51.94921875 45.18554688 C51.95508779 46.63931632 51.9590566 48.09309493 51.9609375 49.546875 C51.96915527 50.85454834 51.97737305 52.16222168 51.98583984 53.50952148 C51.38440099 58.12548909 50.1120712 60.41063578 47.5 64.23828125 C43.72899963 66.89512242 40.18234416 67.89632259 35.52734375 67.7265625 C31.12352643 66.66591286 27.80531673 63.30523233 25.43554688 59.55273438 C24.1921885 56.47678517 24.17314641 53.81784496 24.0859375 50.50390625 C24.02792969 48.56064453 24.02792969 48.56064453 23.96875 46.578125 C23.93729733 45.21484841 23.90604993 43.85156707 23.875 42.48828125 C23.83679531 41.10935097 23.79774213 39.73044391 23.7578125 38.3515625 C23.66351996 34.98060407 23.5779178 31.60965147 23.5 28.23828125 C20.69158362 26.83407306 18.34511919 27.1286711 15.20703125 27.1328125 C13.93666016 27.11798828 12.66628906 27.10316406 11.35742188 27.08789062 C8.67886505 27.05769232 6.00545017 27.05782561 3.32617188 27.07226562 C-8.43203528 26.87639443 -8.43203528 26.87639443 -13.3918457 21.81518555 C-15.81350705 18.36915984 -15.94573335 14.6678849 -15.92578125 10.59765625 C-15.18611227 6.49894007 -12.56801792 3.90888752 -9.5 1.23828125 C-6.47345748 -0.27499001 -3.32241211 0.03390358 0 0 Z " fill="#FDFDFD" transform="translate(1194.5,500.76171875)"/>
<path d="M0 0 C1.52468276 1.17703523 3.02794115 2.38277933 4.5 3.625 C5.06976562 4.08648438 5.63953125 4.54796875 6.2265625 5.0234375 C9.36488309 8.05656298 9.89967794 10.95654186 10.125 15.125 C9.95070352 18.78522615 9.57364348 21.26595906 7.3125 24.1875 C3.46487752 27.52210615 1.09322292 28.45119386 -3.9375 29 C-8.23962325 28.54714492 -10.03827792 27.16830602 -13.5 24.625 C-19.31194866 20.89324988 -24.59116308 19.45420717 -31.5 20.625 C-34.88622776 22.2981975 -34.88622776 22.2981975 -37.5 24.625 C-42.16962656 28.22728334 -45.51963629 29.13181048 -51.5 28.625 C-55.42571085 26.5111557 -58.14142937 24.39871302 -60.5 20.625 C-61.48613519 16.02303576 -61.52732814 11.55124026 -59.28125 7.33984375 C-44.94054315 -10.21399317 -18.31382169 -12.21824495 0 0 Z " fill="#FCFDFC" transform="translate(1025.5,536.375)"/>
<path d="M0 0 C0.9491629 -0.00761353 1.89832581 -0.01522705 2.87625122 -0.02307129 C4.87824889 -0.03384544 6.88030264 -0.03673635 8.88232422 -0.03222656 C11.92902387 -0.03125519 14.97319533 -0.0728879 18.01953125 -0.1171875 C19.97134895 -0.12239593 21.92317535 -0.12508267 23.875 -0.125 C24.77733368 -0.14139526 25.67966736 -0.15779053 26.60934448 -0.17468262 C32.88649829 -0.10683658 37.26375287 1.33170154 42.0703125 5.46875 C44.91300902 9.73279478 44.69390326 13.46443417 44.0703125 18.46875 C41.68042852 23.5242738 39.21189865 25.455058 34.0703125 27.46875 C30.66166333 27.90480177 27.28470831 27.91312829 23.8515625 27.90234375 C22.38740906 27.91020653 22.38740906 27.91020653 20.89367676 27.91822815 C18.83619129 27.92463286 16.77866913 27.92333151 14.72119141 27.91479492 C11.58038993 27.90627733 8.44140366 27.93508087 5.30078125 27.96679688 C3.29687554 27.96840892 1.29296663 27.96783129 -0.7109375 27.96484375 C-1.64546753 27.97607773 -2.57999756 27.98731171 -3.54284668 27.99888611 C-9.17929954 27.93887656 -12.47072428 27.25702401 -16.9296875 23.46875 C-20.09096081 19.78059781 -20.45743524 16.38946277 -20.27734375 11.68359375 C-19.71944154 8.12931786 -18.31863639 6.1091672 -15.9296875 3.46875 C-10.67058297 0.06765246 -6.05945755 0.00134653 0 0 Z " fill="#FBFCFB" transform="translate(987.9296875,757.53125)"/>
<path d="M0 0 C2.97 0 5.94 0 9 0 C9 57.75 9 115.5 9 175 C6.03 175 3.06 175 0 175 C0 117.25 0 59.5 0 0 Z " fill="#F9FBF9" transform="translate(1421,1077)"/>
<path d="M0 0 C2.28392844 0.92815677 3.70085145 1.52530471 5.03533936 3.64289856 C7.50643113 10.96051767 7.40040986 18.17378736 7.328125 25.82421875 C7.3250579 27.25755107 7.32318903 28.69088639 7.32244873 30.1242218 C7.31786787 33.11898343 7.30353755 36.11347287 7.28125 39.1081543 C7.25309876 42.90563475 7.24204753 46.70290097 7.2375679 50.50047588 C7.23235367 54.17091654 7.21786436 57.84130627 7.203125 61.51171875 C7.20124428 62.19159033 7.19936356 62.87146191 7.19742584 63.57193565 C7.10026808 90.77376117 7.10026808 90.77376117 2 99 C1.34 99 0.68 99 0 99 C0.00079559 98.39500671 0.00159119 97.79001343 0.00241089 97.16668701 C0.00484782 90.87216056 -0.03430067 84.57886898 -0.09765625 78.28466797 C-0.11582957 75.93544248 -0.12338236 73.58610992 -0.12011719 71.23681641 C-0.11726408 67.86015779 -0.15254007 64.48572566 -0.1953125 61.109375 C-0.18621857 60.05820496 -0.17712463 59.00703491 -0.16775513 57.92401123 C-0.08450887 52.77599755 -0.08450887 52.77599755 -2.38909912 48.42492676 C-4.19088209 47.1403814 -4.19088209 47.1403814 -7 46 C-6.57621063 45.60159409 -6.15242126 45.20318817 -5.71578979 44.79270935 C-0.99803505 39.92968321 -0.12121003 36.44211053 -0.1953125 29.78515625 C-0.17475296 28.50154457 -0.17475296 28.50154457 -0.15377808 27.19200134 C-0.11664136 24.48162475 -0.12018159 21.77309376 -0.125 19.0625 C-0.10686166 17.21546636 -0.0860554 15.36845687 -0.0625 13.52148438 C-0.01080251 9.01401592 0.00444144 4.50774855 0 0 Z " fill="#307A3C" transform="translate(1064,1412)"/>
<path d="M0 0 C0.66 0 1.32 0 2 0 C8.91113065 7.39734084 7.34043339 21.97845169 7.57080078 31.48388672 C7.59899902 32.39799316 7.62719727 33.31209961 7.65625 34.25390625 C7.67494141 35.07189697 7.69363281 35.8898877 7.71289062 36.73266602 C8.22760415 40.79741478 10.01850674 43.28955158 13 46 C12.18885742 46.54027832 11.37771484 47.08055664 10.54199219 47.63720703 C7.79354404 49.75332975 7.79354404 49.75332975 7.35644531 52.71044922 C7.34709961 53.73154785 7.33775391 54.75264648 7.328125 55.8046875 C7.30443848 56.93946533 7.28075195 58.07424316 7.25634766 59.2434082 C7.25425293 60.4418335 7.2521582 61.64025879 7.25 62.875 C7.20173746 65.32424303 7.15227044 67.77346263 7.1015625 70.22265625 C7.08512695 71.39586426 7.06869141 72.56907227 7.05175781 73.77783203 C6.98984647 77.63210499 6.84868984 81.46420627 6.625 85.3125 C6.57601562 86.29863281 6.52703125 87.28476563 6.4765625 88.30078125 C5.8872444 91.63864032 4.72982313 94.09373318 3 97 C1.515 97.99 1.515 97.99 0 99 C0 66.33 0 33.66 0 0 Z " fill="#287434" transform="translate(949,1412)"/>
<path d="M0 0 C-0.28199471 6.20388364 -2.69538287 10.71020387 -5.625 16.1328125 C-10.10735775 25.47954713 -9.03726581 36.66577798 -5.85180664 46.23754883 C-5.29308393 47.80354179 -4.72106449 49.36486758 -4.13452148 50.9206543 C-2.68657837 54.76219747 -1.60281363 57.81299365 -2 62 C-2.99 62 -3.98 62 -5 62 C-10.98174243 54.28670055 -13.24692496 44.8480959 -16.01171875 35.625 C-16.75615226 32.85916839 -16.75615226 32.85916839 -19.125 31.625 C-20.053125 31.315625 -20.053125 31.315625 -21 31 C-21 30.34 -21 29.68 -21 29 C-20.236875 28.505 -19.47375 28.01 -18.6875 27.5 C-15.83786244 24.84917437 -15.50025407 23.97913914 -14.5625 20.375 C-13.00694924 14.42523804 -7.57769675 0 0 0 Z " fill="#277333" transform="translate(889,1400)"/>
</svg>
